<svg width="222.325" xmlns="http://www.w3.org/2000/svg" height="194.624" fill="none"><g style="fill: rgb(0, 0, 0);"><path d="M42.213,30.838C41.627,35.714,43.874,44.064,47.363,49.794C47.435,49.982,47.535,50.152,47.660,50.305C48.275,55.105,52.474,53.960,57.350,57.761C57.350,57.761,63.992,61.528,70.102,60.310C76.211,59.091,83.315,48.691,85.873,39.641C86.784,36.414,87.192,32.673,86.854,29.081C87.957,22.225,85.371,20.032,81.859,12.217C66.614,-3.863,46.790,10.809,42.213,30.838ZZM38.169,60.904C27.087,60.875,19.496,71.272,11.614,87.561C3.732,103.849,0.332,129.809,3.441,143.156C9.386,168.675,17.244,174.811,36.002,174.697C30.506,182.270,80.705,187.468,97.883,187.670C125.011,187.987,133.073,182.606,136.088,178.043C139.104,173.479,148.431,160.515,163.430,136.662C178.165,113.229,170.151,115.315,163.698,113.987C157.244,112.658,144.892,110.059,121.008,107.200C97.125,104.340,92.311,107.807,90.751,110.030C89.190,112.254,74.114,128.543,74.114,128.543L60.086,144.323C51.882,143.936,46.267,136.558,45.707,127.359C46.025,119.445,51.235,110.001,53.246,101.424C55.256,92.846,61.736,77.279,60.440,71.359C59.144,65.438,49.252,60.933,38.169,60.904ZZ" style="fill: rgb(255, 255, 255);" class="fills"/><path d="M69.162,0.001C64.914,-0.027,60.386,0.725,56.765,2.242C52.321,4.106,50.817,5.339,47.851,9.550C43.264,16.065,41.345,20.831,40.867,27.622C40.844,27.868,40.827,28.120,40.815,28.396C40.759,29.464,40.732,30.582,40.736,31.766C40.736,33.284,40.820,34.716,40.950,36.086C41.780,46.816,45.844,53.243,54.970,58.629C59.279,61.173,66.435,62.793,71.246,60.963C73.234,67.510,76.414,65.268,74.870,58.856C75.477,57.874,75.974,57.636,78.367,55.013C82.604,50.369,85.750,42.740,87.014,34.273C87.607,32.375,88.355,31.870,89.779,31.686C94.356,31.094,95.447,27.848,92.337,24.075C90.443,21.777,90.442,21.759,92.046,20.467C93.990,18.901,93.401,15.340,91.048,14.433C90.209,14.110,89.063,12.680,88.501,11.255C87.924,9.794,86.417,8.247,85.041,7.704C83.700,7.174,82.746,6.222,82.920,5.588C83.096,4.955,81.726,3.501,79.878,2.357C77.378,0.809,73.409,0.022,69.162,0.001ZZM62.546,20.123C62.950,20.123,63.335,20.191,63.696,20.303C64.842,20.652,65.926,22.196,66.698,24.582C68.158,29.091,71.204,30.564,73.609,27.924C75.062,26.328,75.148,26.360,75.632,28.700C76.390,32.363,78.724,34.517,81.139,33.782C81.924,33.542,82.398,33.431,82.654,33.553C82.082,37.323,81.107,41.009,79.790,44.136C78.360,47.533,74.798,52.587,73.488,54.371C72.097,52.828,69.838,52.789,70.103,56.644C67.992,57.056,65.438,57.432,63.338,56.819C61.524,56.032,60.166,53.526,60.166,50.966C60.166,47.772,58.021,48.608,57.745,51.975C57.673,52.859,57.642,54.314,57.799,55.248C53.207,53.704,50.223,50.007,47.475,44.283C46.842,42.650,46.382,40.573,46.075,38.307C46.052,38.005,46.043,37.690,46.043,37.408C46.043,30.530,56.481,19.968,62.546,20.123ZZM67.506,42.275C67.308,42.302,67.118,42.334,66.944,42.417C65.164,43.246,64.479,45.968,65.801,46.964C67.370,48.146,70.385,44.475,69.113,42.931C68.739,42.477,68.096,42.233,67.506,42.275ZZM74.577,43.406C74.092,43.433,73.548,43.724,73.049,44.329C72.019,45.578,72.023,47.034,72.475,47.892C73.135,49.148,74.120,48.586,74.947,47.753C75.543,47.152,76.032,46.089,76.032,45.391C76.032,44.086,75.386,43.367,74.577,43.406ZZM40.221,56.644C32.634,56.464,26.456,61.200,18.913,72.147C8.804,86.814,4.279,99.330,1.415,120.533C-0.782,136.799,-0.445,146.836,2.600,155.872C5.178,163.521,10.103,170.699,13.619,171.934C19.564,174.022,20.124,172.251,15.358,166.440C8.125,157.500,3.915,145.858,5.424,132.122C8.570,99.085,15.871,79.007,28.738,68.009C34.162,63.371,34.428,63.261,40.066,63.261C46.419,63.261,52.903,66.005,55.756,69.899C57.176,71.839,57.220,72.467,56.317,77.978C55.764,81.354,52.950,90.031,49.852,97.913C42.234,117.298,39.834,130.158,43.835,130.158C45.082,130.158,45.740,128.465,47.513,120.695C48.763,115.216,51.777,106.137,54.674,99.130C59.609,87.190,59.694,87.059,60.913,89.333C63.647,94.432,67.511,98.740,71.892,101.573C79.140,106.260,89.850,110.161,100.427,111.965C105.772,112.876,110.107,114.003,110.145,114.463C110.168,114.643,110.179,115.255,110.168,115.383C97.615,113.769,92.685,113.193,92.224,114.651C91.974,115.440,88.791,118.768,87.684,119.648C86.783,118.615,85.872,117.124,82.368,112.814C79.382,109.140,76.609,106.628,76.118,106.996C74.644,108.102,75.143,111.810,77.227,115.239C78.318,117.033,79.211,118.579,79.211,118.676C79.211,118.772,77.693,118.649,75.839,118.403C72.906,118.012,72.196,118.310,70.385,120.687C69.239,122.191,67.966,124.720,67.555,126.309C66.417,130.711,60.536,132.896,49.858,132.886C31.595,132.859,29.526,128.130,33.150,94.606C34.194,84.944,34.530,78.931,34.056,78.356C32.438,76.393,30.957,78.821,29.368,86.042C24.861,106.536,24.213,123.025,27.624,130.389C32.349,140.589,46.426,144.035,62.543,138.938C66.684,137.628,70.144,136.645,70.233,136.752C70.320,136.859,66.841,141.330,62.499,146.687C52.516,159.004,52.544,159.322,63.741,161.331C71.570,162.736,103.526,166.402,117.647,167.515C120.244,167.720,122.504,168.386,122.671,168.996C123.191,170.890,125.572,170.220,128.141,167.458C129.495,166.002,134.171,159.612,138.533,153.259C142.895,146.906,148.689,138.677,151.407,134.972C154.126,131.266,156.883,127.261,157.534,126.075C159.965,121.642,158.307,120.816,143.867,119.256C141.980,119.051,139.874,118.867,137.960,118.621C137.172,118.112,136.110,117.434,135.537,116.973C131.692,113.879,115.066,108.965,95.473,105.132C89.056,103.877,85.994,102.649,79.449,98.710C68.052,91.849,62.616,84.547,62.569,76.034C62.521,67.543,58.109,62.063,48.385,58.415C45.440,57.310,42.755,56.704,40.221,56.644ZZM94.070,116.694C94.216,116.721,94.389,116.756,94.636,116.790C99.020,117.380,108.813,118.788,110.041,119.061C110.378,119.815,110.933,121.828,111.075,123.412C111.246,125.315,111.841,126.408,112.826,126.635C114.706,127.068,115.841,125.036,115.295,122.216C114.662,118.949,115.734,119.566,119.906,124.864C123.886,129.919,126.805,131.141,126.805,127.752C126.805,126.693,126.061,124.924,125.151,123.821C122.260,120.313,124.254,120.595,128.110,124.240C131.815,127.742,135.531,128.873,135.531,126.500C135.531,125.812,135.103,124.728,134.580,124.093C133.100,122.298,135.180,122.615,137.621,124.556C139.248,125.849,141.754,124.961,140.989,122.630C143.387,122.864,152.331,123.428,153.187,124.467C153.444,124.778,147.356,133.442,139.659,143.719C123.900,164.761,126.035,163.263,114.509,161.369C111.891,160.939,100.242,159.480,88.623,158.126C66.767,155.580,62.524,154.884,62.577,153.861C62.600,153.530,65.182,149.916,68.328,145.831L74.050,138.405L78.160,139.744C81.595,140.864,83.002,140.877,86.724,139.826C89.174,139.135,90.763,138.409,91.078,138.289C92.794,137.634,93.298,138.586,94.851,139.864C98.245,142.658,99.175,142.741,100.923,140.397C102.475,138.316,108.364,134.894,109.022,135.692C109.268,135.990,108.907,137.552,108.221,139.163C107.534,140.774,106.972,143.318,106.972,144.814C106.972,148.028,108.949,151.814,110.628,151.814C111.937,151.814,114.112,146.333,114.112,143.032C114.112,140.988,114.159,140.978,115.699,142.670C116.572,143.628,117.285,145.130,117.285,146.007C117.285,146.885,118.287,148.767,119.511,150.189C121.939,153.012,125.992,153.683,127.479,151.508C128.629,149.827,126.610,146.271,123.750,144.939L121.649,143.959L124.029,141.635C125.466,140.232,127.448,139.306,129.033,139.306C132.312,139.306,131.653,137.663,128.040,136.841C126.297,136.444,125.221,135.567,124.953,134.321C124.662,132.972,124.000,132.504,122.698,132.728C121.207,132.985,120.855,133.634,120.855,136.135C120.855,137.834,120.263,139.945,119.539,140.826C118.311,142.319,118.141,142.241,117.031,139.661C113.928,132.450,105.864,127.383,105.119,132.175C105.014,132.859,100.102,136.414,99.265,136.414C99.136,136.414,98.716,134.996,98.160,133.459C97.738,132.293,97.544,130.918,96.079,129.549C94.997,128.537,93.416,127.243,91.925,125.376L89.215,121.984L92.250,118.348C93.440,116.841,93.632,116.642,94.070,116.694ZZM110.593,139.078C110.775,139.219,110.856,140.280,110.882,142.430C110.914,144.945,110.582,147.003,110.145,147.003C109.192,147.003,109.192,142.474,110.145,139.784C110.339,139.241,110.483,138.993,110.593,139.078ZZM59.745,142.545C58.244,142.142,55.055,145.511,44.659,157.959C37.470,166.566,34.555,171.199,33.986,172.827C33.617,173.885,33.559,175.158,34.708,174.916C35.679,174.712,41.274,168.860,43.077,166.481C43.730,165.619,47.475,160.763,52.327,154.802C58.587,147.110,60.903,143.662,60.302,142.932C60.140,142.736,59.960,142.602,59.745,142.545ZZM121.298,147.037C121.978,147.009,123.227,147.638,124.074,148.416C126.046,150.226,124.641,150.247,122.045,148.446C120.774,147.564,120.505,147.058,121.298,147.037ZZM98.962,147.966C95.888,147.966,96.082,153.610,99.219,155.445C101.569,156.818,101.734,156.823,102.785,155.548C104.402,153.586,101.569,147.965,98.962,147.966ZZM99.738,150.854C100.174,150.854,100.752,151.286,101.022,151.815C101.291,152.345,101.155,152.778,100.718,152.778C100.282,152.778,99.705,152.345,99.436,151.815C99.166,151.286,99.301,150.854,99.738,150.854ZZ" class="fills"/></g><g style="fill: rgb(0, 0, 0);"><path d="M167.408,176.562C165.683,176.104,164.671,175.941,163.513,174.341C162.355,172.742,158.729,170.822,158.876,169.400C159.022,167.978,159.860,167.318,160.522,167.202C161.183,167.087,167.598,165.454,168.663,164.689C169.728,163.924,210.879,169.931,211.563,170.422C212.247,170.912,212.826,173.677,211.319,177.009C209.813,180.342,208.136,181.901,205.502,182.100C202.868,182.299,167.408,176.562,167.408,176.562ZZ" style="fill: rgb(228, 218, 127);" class="fills"/><path d="M165.362,166.591C163.732,164.902,163.174,164.001,162.554,163.442C161.934,162.882,158.757,160.257,159.255,158.983C159.753,157.709,161.507,157.515,163.079,157.724C164.651,157.932,169.100,159.035,169.100,159.035L171.864,161.634L189.147,169.878C189.147,169.878,168.786,165.588,167.548,166.179C166.310,166.769,165.362,166.591,165.362,166.591ZZ" style="fill: rgb(232, 182, 98);" class="fills"/><path d="M189.036,170.086C188.611,170.019,172.138,161.581,171.209,160.691C170.280,159.801,168.897,157.857,168.340,156.649C167.784,155.441,164.799,151.940,165.173,151.071C165.547,150.203,168.226,151.254,169.056,151.123C169.887,150.993,173.202,151.719,175.084,152.258C176.965,152.798,201.868,165.459,202.665,165.949C203.461,166.439,209.233,170.850,208.844,171.966C208.455,173.082,207.469,174.414,207.469,174.414Z" style="fill: rgb(207, 96, 76);" class="fills"/><path d="M176.707,152.341C175.076,151.322,174.804,149.586,174.237,148.734C173.670,147.882,170.686,143.427,170.330,142.396C169.975,141.365,169.918,140.300,170.784,140.567C171.650,140.835,175.202,142.495,176.223,142.707C177.245,142.918,179.454,143.691,179.454,143.691C179.454,143.691,189.382,152.773,190.150,153.802C190.919,154.830,200.683,164.367,200.683,164.367C200.683,164.367,197.779,164.189,196.782,163.544C195.784,162.899,176.707,152.341,176.707,152.341ZZ" style="fill: rgb(157, 140, 232);" class="fills"/><path d="M212.116,170.764C210.914,171.807,210.675,171.783,209.214,171.202C207.753,170.621,195.487,158.502,195.487,158.502C195.487,158.502,181.184,145.921,180.558,144.936C179.932,143.951,179.696,141.660,179.149,140.859C178.602,140.059,175.823,136.058,175.918,135.041C176.012,134.023,176.864,133.988,177.856,134.503C178.847,135.018,184.649,137.196,185.605,137.504C186.561,137.812,192.325,143.407,193.888,144.479C195.451,145.552,213.900,163.966,214.671,165.038C215.442,166.110,213.276,170.148,212.116,170.764ZZ" style="fill: rgb(126, 213, 165);" class="fills"/><path d="M213.664,170.658C212.692,171.587,211.934,171.949,210.932,171.964C209.098,171.992,208.293,173.488,209.265,175.063C210.640,177.292,209.356,181.894,206.881,183.608C205.702,184.425,205.231,184.444,201.023,183.840C189.829,182.233,172.196,179.094,166.796,177.747C165.202,177.350,164.640,176.991,163.095,175.384C162.093,174.342,160.629,173.074,159.842,172.565C156.885,170.654,156.327,169.790,157.040,168.224C157.569,167.063,158.778,166.689,162.053,166.673C163.606,166.665,165.558,166.405,166.390,166.096C167.445,165.704,168.591,165.687,170.168,166.039C172.920,166.655,175.275,167.089,183.266,168.450C186.650,169.027,191.758,170.020,194.617,170.656C200.311,171.924,200.189,171.951,201.454,169.172C202.421,167.047,202.227,166.700,199.272,165.268C197.810,164.560,193.872,162.583,190.521,160.875L184.427,157.771L183.600,159.548C182.868,161.120,182.064,162.187,180.219,164.033C179.742,164.510,179.930,164.681,182.044,165.691C183.340,166.311,184.787,167.125,185.259,167.500C187.130,168.988,184.488,168.115,177.529,164.947C170.513,161.754,170.434,161.706,169.378,160.094C168.792,159.199,167.485,157.392,166.475,156.079C163.946,152.793,163.938,152.779,163.946,151.669C163.955,150.396,164.707,149.432,165.790,149.303C166.262,149.247,167.921,149.614,169.477,150.117C171.033,150.621,172.845,150.977,173.503,150.909C174.385,150.818,175.740,151.264,178.666,152.608C184.499,155.288,193.679,160.170,195.916,161.781C196.989,162.554,198.210,163.276,198.629,163.386C199.377,163.581,195.469,159.811,188.612,153.721C181.222,147.158,179.058,144.867,178.831,143.366C178.715,142.598,177.794,140.788,176.785,139.344C175.043,136.852,174.251,134.732,174.697,133.754C174.808,133.510,175.328,133.144,175.853,132.939C176.677,132.619,177.461,132.857,181.592,134.684C187.729,137.399,186.967,136.792,201.124,150.231C203.744,152.719,207.447,156.076,209.352,157.691C214.496,162.052,215.708,163.568,215.784,165.743C215.861,167.943,215.409,168.990,213.664,170.658ZZM213.827,164.607C213.451,164.192,213.095,163.885,213.038,163.927C212.980,163.968,212.408,164.656,211.766,165.456C211.084,166.307,209.933,167.186,208.992,167.574L207.385,168.238L208.621,169.292C210.572,170.955,210.992,171.027,211.972,169.871C212.456,169.300,213.225,168.052,213.682,167.098C214.426,165.542,214.441,165.285,213.827,164.607ZZM207.613,176.801C207.478,175.640,207.212,175.147,206.620,174.966C206.176,174.829,205.751,174.745,205.676,174.778C205.602,174.812,205.538,175.824,205.534,177.028C205.530,178.731,205.322,179.588,204.597,180.894C203.799,182.331,203.749,182.610,204.248,182.837C205.682,183.490,207.922,179.471,207.613,176.801ZZM207.977,171.512C207.566,170.158,206.558,169.979,206.018,171.163C205.761,171.728,205.269,172.326,204.925,172.494C204.408,172.745,204.507,172.844,205.494,173.063C206.152,173.209,206.890,173.419,207.134,173.530C207.737,173.805,208.279,172.507,207.977,171.512ZZM202.787,178.601C203.178,176.373,203.040,174.763,202.433,174.487C202.255,174.406,202.211,174.742,202.334,175.234C202.602,176.303,201.750,180.009,200.972,181.160C200.637,181.656,200.571,182.047,200.805,182.154C201.768,182.592,202.231,181.762,202.787,178.601ZZM210.539,161.638C210.108,161.160,209.896,161.340,208.693,163.210C208.227,163.932,207.314,164.682,206.461,165.043C205.407,165.488,205.090,165.781,205.289,166.128C205.714,166.872,206.663,167.180,206.904,166.652C207.024,166.389,207.740,165.780,208.495,165.299C210.057,164.305,211.160,162.329,210.539,161.638ZZM204.474,170.136C205.111,168.912,205.133,168.636,204.614,168.399C204.130,168.178,203.808,168.437,203.119,169.599C202.637,170.414,201.991,171.337,201.685,171.651C201.185,172.163,201.253,172.245,202.349,172.454C203.956,172.761,204.353,172.671,204.005,172.079C203.828,171.779,204.010,171.030,204.474,170.136ZZM199.775,177.933C199.980,176.966,199.973,175.655,199.758,175.020L199.368,173.866L194.297,172.752C186.825,171.110,179.226,169.717,178.761,169.904C178.537,169.994,178.457,170.747,178.583,171.578C178.746,172.653,178.556,173.776,177.924,175.467L177.035,177.844L182.092,178.731C184.874,179.218,189.501,180.041,192.376,180.559C195.251,181.077,197.813,181.521,198.070,181.546C198.646,181.601,199.283,180.252,199.775,177.933ZZM191.980,177.582C191.567,177.274,190.999,177.184,190.662,177.373C190.337,177.555,189.733,177.551,189.321,177.364C188.910,177.176,188.408,177.147,188.206,177.298C188.004,177.450,187.553,177.443,187.202,177.283C186.852,177.124,186.369,177.202,186.129,177.458C185.150,178.501,183.867,176.644,184.361,174.898C184.500,174.410,184.808,174.175,185.205,174.255C185.590,174.332,185.729,174.602,185.567,174.957C185.225,175.708,185.749,175.938,186.348,175.299C186.627,175.001,186.978,174.983,187.222,175.255C187.446,175.503,188.032,175.607,188.524,175.484C189.016,175.362,189.569,175.429,189.754,175.634C189.938,175.839,190.329,175.722,190.623,175.374C191.413,174.436,192.176,174.618,192.730,175.875C193.380,177.354,192.959,178.313,191.980,177.582ZZM207.452,158.815C207.020,158.468,204.048,155.700,200.848,152.663C194.801,146.925,192.912,145.357,192.967,146.121C193.028,146.976,190.867,149.368,189.466,149.995L188.050,150.628L190.048,152.473C191.147,153.487,192.776,155.027,193.668,155.894C194.560,156.762,197.217,159.144,199.572,161.189L203.855,164.906L205.503,163.358C206.410,162.507,207.396,161.278,207.695,160.628C208.150,159.635,208.111,159.344,207.452,158.815ZZM200.731,158.481C200.440,158.476,199.813,157.874,199.337,157.141C198.728,156.203,198.320,155.879,197.953,156.043C197.667,156.171,197.330,156.229,197.203,156.171C196.735,155.958,195.817,152.405,196.162,152.145C196.713,151.731,198.346,152.629,198.607,153.490C198.736,153.913,199.097,154.263,199.411,154.269C199.724,154.274,199.997,154.498,200.016,154.767C200.035,155.036,200.377,155.404,200.775,155.585C201.173,155.767,201.583,156.193,201.686,156.532C201.938,157.363,201.385,158.492,200.731,158.481ZZM191.264,143.836C191.043,143.616,190.748,143.896,190.402,144.656C189.756,146.074,188.882,146.861,186.887,147.819C185.516,148.478,185.421,148.590,186.000,148.853C186.818,149.226,189.127,148.154,190.139,146.931C191.154,145.705,191.682,144.253,191.264,143.836ZZM175.874,173.905C176.402,171.620,176.239,169.164,175.557,169.152C175.158,169.146,175.052,169.628,175.101,171.237C175.146,172.732,174.920,173.866,174.309,175.206C173.571,176.827,173.543,177.095,174.109,177.174C174.854,177.279,175.274,176.502,175.874,173.905ZZM182.159,156.840C181.999,156.767,181.295,157.691,180.595,158.893C179.895,160.096,178.884,161.527,178.347,162.074C177.445,162.993,177.419,163.089,177.996,163.352C178.413,163.542,178.836,163.332,179.274,162.717C179.634,162.212,180.053,161.656,180.204,161.481C180.828,160.760,182.428,156.962,182.159,156.840ZZM188.579,141.123C188.062,140.563,187.951,140.620,187.465,141.686C186.879,142.973,184.680,145.044,183.525,145.398C182.669,145.660,182.694,145.851,183.692,146.700C184.369,147.276,184.594,147.212,185.895,146.080C187.266,144.887,188.857,142.888,189.061,142.103C189.112,141.906,188.895,141.465,188.579,141.123ZZM172.990,171.514C172.843,167.785,171.322,167.486,170.942,171.112C170.815,172.326,170.403,173.995,170.027,174.821C169.472,176.039,169.458,176.324,169.955,176.332C170.292,176.338,170.774,176.436,171.026,176.551C171.783,176.896,173.072,173.589,172.990,171.514ZZM178.834,155.104C177.894,154.675,177.868,154.697,177.121,156.536C176.425,158.250,175.646,159.418,174.219,160.887C173.743,161.377,173.835,161.499,174.983,161.899C176.126,162.296,176.378,162.228,177.002,161.350C177.394,160.799,178.182,159.265,178.752,157.943C179.788,155.539,179.788,155.538,178.834,155.104ZZM186.143,138.763C185.438,138.139,184.659,137.779,183.809,137.682C183.108,137.603,181.261,136.958,179.706,136.249C178.150,135.540,176.816,135.095,176.741,135.259C176.666,135.424,177.263,136.431,178.068,137.498C178.873,138.565,179.794,140.414,180.116,141.607C180.821,144.229,181.745,145.165,183.049,144.580C184.145,144.088,186.060,142.057,186.725,140.681C187.131,139.842,187.046,139.561,186.143,138.763ZZM169.728,170.737C169.833,168.545,170.334,168.555,168.504,168.133C167.769,167.963,166.854,167.938,166.469,168.076C166.084,168.214,164.367,168.427,162.652,168.550C160.937,168.672,159.282,168.914,158.973,169.087C158.324,169.452,158.601,169.768,160.894,171.273C161.710,171.809,162.961,172.910,163.675,173.719C164.890,175.097,167.226,176.187,168.471,175.957C168.999,175.860,169.602,173.354,169.728,170.737ZZM176.807,154.953C176.739,154.128,174.469,152.725,173.406,152.852C172.916,152.910,171.019,152.517,169.189,151.979C165.289,150.832,164.791,151.168,166.852,153.560C167.627,154.460,168.787,156.164,169.430,157.347C170.073,158.530,171.153,159.882,171.829,160.352C173.343,161.530,173.054,161.213,174.355,159.643C175.797,157.902,176.880,155.831,176.807,154.953ZZM193.750,168.039C193.142,167.913,192.551,167.651,192.437,167.458C192.324,167.265,191.986,167.177,191.688,167.264C191.390,167.351,190.520,167.160,189.756,166.841C188.684,166.392,188.363,166.059,188.354,165.383C188.341,164.419,188.884,163.818,189.428,164.193C189.620,164.326,190.091,164.424,190.475,164.411C190.885,164.398,191.286,164.665,191.447,165.060C191.665,165.592,191.864,165.682,192.414,165.496C192.909,165.327,193.173,165.425,193.343,165.839C193.487,166.192,193.819,166.374,194.190,166.305C194.562,166.236,194.893,166.418,195.037,166.771C195.439,167.754,194.907,168.279,193.750,168.039ZZM173.252,148.267C173.153,148.132,172.249,146.937,171.245,145.611C170.240,144.284,169.307,142.735,169.170,142.167C168.867,140.905,169.669,139.819,170.843,139.902C171.747,139.965,175.725,141.854,175.854,142.282C176.024,142.840,174.609,142.765,173.215,142.143C171.122,141.209,170.486,141.433,171.123,142.880C171.404,143.519,171.898,144.296,172.222,144.607C173.156,145.505,173.962,147.351,173.686,147.957C173.547,148.262,173.352,148.402,173.252,148.267ZZM166.139,159.672C165.537,159.702,164.268,159.486,163.320,159.191C159.633,158.048,158.877,159.079,161.559,161.595C162.587,162.559,163.486,163.855,163.685,164.418C164.049,165.449,163.641,165.281,162.755,164.671C160.694,163.253,158.679,161.172,158.364,160.136C157.984,158.885,158.580,157.520,159.695,157.087C160.517,156.767,165.055,157.388,166.736,158.050C167.901,158.509,167.497,159.605,166.139,159.672ZZ" class="fills"/></g><rect rx="0" ry="0" x="99" y="130" transform="matrix(1.000000, 0.000000, 0.000000, 1.000000, 0.000000, 0.000000)" width="33" height="23" style="fill: rgb(255, 255, 255); fill-opacity: 1;" class="fills"/><rect rx="0" ry="0" x="96.5" y="145.5" transform="matrix(1.000000, 0.000000, 0.000000, 1.000000, 0.000000, 0.000000)" width="11" height="12" style="fill: rgb(255, 255, 255); fill-opacity: 1;" class="fills"/><path d="M149.122,135.672L89.000,127.000M207.000,164.000" class="fills"/><g class="strokes"><path d="M149.122,135.672L89.000,127.000M207.000,164.000" style="fill: none; stroke-width: 2; stroke: rgb(0, 0, 0); stroke-opacity: 1;" class="stroke-shape"/></g><path d="M113.796,117.890L69.000,159.659M172.478,90.216" class="fills"/><g class="strokes"><path d="M113.796,117.890L69.000,159.659M172.478,90.216" style="fill: none; stroke-width: 2; stroke: rgb(0, 0, 0); stroke-opacity: 1;" class="stroke-shape"/></g><path d="M136.255,149.672L69.000,141.000M201.000,178.000" class="fills"/><g class="strokes"><path d="M136.255,149.672L69.000,141.000M201.000,178.000" style="fill: none; stroke-width: 2; stroke: rgb(0, 0, 0); stroke-opacity: 1;" class="stroke-shape"/></g><path d="M142.796,122.890L98.000,164.659M201.478,95.216" class="fills"/><g class="strokes"><path d="M142.796,122.890L98.000,164.659M201.478,95.216" style="fill: none; stroke-width: 2; stroke: rgb(0, 0, 0); stroke-opacity: 1;" class="stroke-shape"/></g><path d="M100.000,144.000L102.000,130.000L129.000,134.000L117.000,146.000L100.000,144.000Z" style="fill: rgb(0, 128, 0); fill-opacity: 1;" class="fills"/><g class="strokes"><g class="inner-stroke-shape"><defs><clipPath id="b"><use href="#a"/></clipPath><path d="M100.000,144.000L102.000,130.000L129.000,134.000L117.000,146.000L100.000,144.000Z" id="a" style="fill: none; stroke-width: 4; stroke: rgb(0, 128, 0); stroke-opacity: 1;"/></defs><use href="#a" clip-path="url('#b')"/></g></g><path d="M98.500,134.000L99.000,136.000L99.000,144.000L102.000,130.000L98.500,134.000Z" style="fill: rgb(0, 128, 0); fill-opacity: 1;" class="fills"/><g class="strokes"><g class="inner-stroke-shape"><defs><clipPath id="d"><use href="#c"/></clipPath><path d="M98.500,134.000L99.000,136.000L99.000,144.000L102.000,130.000L98.500,134.000Z" id="c" style="fill: none; stroke-width: 4; stroke: rgb(0, 128, 0); stroke-opacity: 1;"/></defs><use href="#c" clip-path="url('#d')"/></g></g><rect rx="0" ry="0" x="99.883" y="132.008" transform="matrix(0.988976, 0.148076, -0.148076, 0.988976, 21.542306, -13.342918)" width="1" height="12" style="fill: rgb(0, 128, 0); fill-opacity: 1;" class="fills"/><rect rx="0" ry="0" x="101.5" y="130" transform="matrix(0.955346, 0.295488, -0.295488, 0.955346, 43.326289, -24.205122)" width=".5" height="2.5" style="fill: rgb(0, 128, 0); fill-opacity: 1;" class="fills"/></svg>