<svg width="252" xmlns="http://www.w3.org/2000/svg" height="211.714" fill="none"><g style="fill: rgb(0, 0, 0);"><path d="M67.357,2.813C65.918,2.832,64.660,3.058,63.761,3.532C59.654,5.700,51.612,10.847,52.080,17.679C52.548,24.511,60.971,30.484,60.971,30.484C60.971,30.484,52.912,46.175,52.184,51.166C51.456,56.157,54.247,64.705,58.580,70.570C58.669,70.762,58.793,70.936,58.949,71.094C59.712,76.007,64.927,74.834,70.983,78.725C70.983,78.725,79.232,82.581,86.820,81.334C94.407,80.087,103.231,69.442,106.407,60.177C107.539,56.874,108.046,53.045,107.625,49.368C108.995,42.350,105.784,40.106,101.422,32.106C96.361,22.826,82.080,20.876,82.080,20.876C82.080,20.876,83.415,12.844,81.456,8.617C79.926,5.315,72.494,2.745,67.357,2.813ZL67.357,2.813ZM47.162,81.942C33.398,81.913,23.970,92.555,14.181,109.228C4.392,125.902,0.169,152.474,4.031,166.137C11.414,192.257,21.174,198.539,44.470,198.422C37.644,206.174,99.989,211.495,121.324,211.701C155.014,212.026,165.027,206.517,168.772,201.847C172.517,197.176,184.101,183.905,202.729,159.489C221.030,135.503,211.077,137.638,203.062,136.278C195.047,134.919,179.706,132.258,150.044,129.331C120.381,126.404,114.403,129.952,112.465,132.229C110.527,134.505,91.803,151.178,91.803,151.178L74.381,167.331C64.193,166.935,57.218,159.382,56.523,149.966C56.917,141.866,63.389,132.199,65.886,123.419C68.382,114.639,76.430,98.704,74.820,92.644C73.211,86.584,60.925,81.972,47.162,81.942ZL47.162,81.942Z" style="fill: rgb(255, 255, 255);" class="fills"/><path d="M69.564,0.001C64.131,0.001,57.888,3.087,53.501,7.943C50.589,11.166,49.990,12.575,49.990,16.197C49.990,22.083,51.439,25.545,55.200,28.899C58.048,31.438,56.836,31.461,54.917,31.118C52.706,30.723,50.292,29.287,48.180,27.019C46.371,25.078,44.697,23.685,44.457,23.924C43.544,24.837,45.399,29.788,47.858,31.722C49.719,33.774,52.553,34.412,54.359,34.896L52.643,39.183C51.175,42.853,50.509,45.654,50.539,51.727C50.567,55.212,50.900,58.288,51.597,61.052C51.625,61.155,51.647,61.261,51.672,61.363C51.733,61.598,51.801,61.825,51.868,62.053C54.000,69.725,59.059,74.904,68.269,79.384C73.621,81.987,82.510,83.646,88.485,81.773C90.955,88.475,94.902,86.179,92.985,79.617C93.738,78.611,94.356,78.367,97.328,75.682C102.251,71.235,105.787,64.071,107.766,56.130C108.107,54.759,108.296,52.759,108.781,53.415C112.644,58.649,115.658,53.841,115.538,52.517C115.363,50.590,113.501,52.351,112.147,51.565C110.571,50.649,109.519,49.918,109.024,44.831C108.963,44.190,108.885,43.621,108.815,43.030C108.658,40.933,108.304,39.000,107.747,37.213C106.718,33.492,105.114,30.919,102.441,28.316C98.756,24.726,88.935,19.706,85.597,19.706C84.053,19.706,83.877,19.019,84.253,14.488C84.633,9.904,84.359,8.881,82.000,6.078C78.448,1.856,74.650,-0.000,69.564,0.001ZZM69.848,4.215C71.322,4.215,72.580,4.458,73.258,5.022C75.465,6.853,77.894,16.373,76.685,18.450C75.854,19.877,75.661,19.510,75.637,16.455C75.603,12.446,73.758,8.058,71.215,5.947C68.732,3.887,68.281,5.549,70.542,8.424C74.570,13.544,74.105,21.677,69.784,21.677C68.591,21.677,67.785,20.743,67.425,18.944C66.829,15.968,61.844,6.683,61.825,8.515C61.825,9.133,62.691,11.572,63.763,13.934C64.835,16.296,65.721,19.448,65.733,20.938C65.772,25.718,63.024,23.928,60.972,17.835C59.047,12.121,59.521,8.140,62.347,6.288C64.330,4.988,67.390,4.233,69.848,4.215ZZM77.134,7.175C77.431,7.130,78.102,7.767,79.044,9.206C80.031,10.713,80.512,12.969,80.267,14.957C79.968,17.385,79.821,17.593,79.700,15.766C79.611,14.411,78.866,12.016,78.047,10.446C76.985,8.409,76.751,7.231,77.134,7.175ZZM57.807,8.376L57.846,11.332C57.902,15.579,59.666,21.360,61.455,23.149C62.684,24.378,62.752,24.980,61.790,26.138C60.233,28.014,59.504,27.966,57.600,25.862C53.677,21.527,52.854,14.320,55.869,10.702ZM78.494,24.118C79.967,24.009,81.387,25.082,84.475,28.432C86.914,31.077,89.651,35.072,90.559,37.311L92.210,41.382L88.835,41.382C86.979,41.382,85.460,40.934,85.460,40.386C85.460,38.224,81.091,30.268,78.457,27.634C75.680,24.857,75.677,24.844,77.855,24.235C78.073,24.173,78.284,24.134,78.494,24.118ZZM86.386,24.806C86.785,24.840,87.407,25.077,88.255,25.532C90.245,26.597,95.500,35.033,96.747,39.165C97.220,40.732,97.010,41.382,96.027,41.382C95.264,41.382,94.135,39.699,93.519,37.643C92.903,35.586,90.785,32.018,88.812,29.713C86.013,26.443,85.191,24.705,86.386,24.806ZZM73.123,25.847C74.043,25.847,74.824,26.384,76.205,27.673C78.961,30.245,81.856,35.412,82.840,39.516C83.381,41.771,83.008,42.274,79.778,43.661C77.755,44.530,75.176,45.929,74.046,46.771C72.126,48.203,71.920,48.143,70.871,45.840C69.230,42.237,67.327,31.032,68.041,29.172C68.379,28.292,69.780,27.059,71.155,26.433C71.968,26.062,72.570,25.854,73.123,25.847ZZM92.956,27.820C94.612,27.867,101.238,34.994,102.225,37.982C103.633,42.248,103.232,46.322,101.607,44.254C101.004,43.487,100.228,41.675,99.882,40.226C99.537,38.778,97.672,35.520,95.739,32.987C93.805,30.453,92.435,28.168,92.695,27.908C92.759,27.844,92.846,27.816,92.956,27.820ZZM65.755,30.201L65.755,33.082C65.755,34.667,66.412,39.067,67.215,42.860C68.019,46.653,68.678,50.423,68.679,51.235C68.679,54.378,66.874,49.882,66.219,45.123C65.277,38.274,63.380,40.208,64.118,47.265C64.441,50.351,64.988,53.615,65.335,54.519C65.681,55.422,65.547,56.161,65.033,56.161C63.603,56.161,61.590,43.102,62.357,38.796C62.884,35.837,62.770,35.229,61.849,36.095C60.011,37.825,59.422,48.697,60.771,55.991C61.586,60.399,61.675,63.378,61.039,65.029C60.100,67.472,60.079,67.461,58.459,63.604C57.473,61.258,56.755,56.570,56.647,51.781C56.452,43.033,58.542,36.977,63.299,32.508ZM89.362,46.310C97.483,46.310,98.240,47.532,91.865,50.352C87.240,52.398,86.404,53.586,88.916,54.551C91.064,55.374,95.016,53.627,97.801,50.622C99.871,48.389,100.441,48.206,101.799,49.333C102.716,50.094,103.068,51.484,102.910,53.301C102.083,57.354,100.759,61.297,99.097,64.549C97.321,68.026,92.897,73.200,91.270,75.026C89.542,73.447,86.736,73.407,87.065,77.353C84.443,77.775,81.272,78.159,78.665,77.532C76.412,76.726,74.723,74.161,74.723,71.541C74.723,68.272,72.060,69.128,71.717,72.574C71.628,73.479,71.591,74.968,71.784,75.924C69.134,75.190,66.820,73.928,64.748,72.220C64.053,71.303,63.784,70.072,63.784,68.309C63.784,64.014,65.847,60.043,70.965,54.490C76.777,48.185,80.993,46.311,89.362,46.310ZZM83.839,62.644C83.593,62.672,83.357,62.705,83.142,62.790C80.930,63.638,80.081,66.425,81.723,67.444C83.673,68.654,87.415,64.897,85.835,63.316C85.370,62.851,84.572,62.601,83.839,62.644ZZM92.623,63.802C92.020,63.830,91.344,64.128,90.725,64.747C89.446,66.026,89.449,67.515,90.010,68.394C90.830,69.680,92.055,69.105,93.082,68.252C93.822,67.637,94.428,66.549,94.428,65.834C94.428,64.498,93.627,63.762,92.623,63.802ZZM49.954,77.353C40.531,77.169,32.858,82.016,23.489,93.222C10.935,108.235,5.314,121.046,1.757,142.750C-0.971,159.400,-0.553,169.674,3.229,178.923C6.432,186.753,12.547,194.101,16.914,195.365C24.298,197.502,24.995,195.689,19.075,189.740C10.092,180.590,4.864,168.673,6.738,154.613C10.646,120.795,19.713,100.244,35.693,88.986C42.430,84.239,42.759,84.126,49.762,84.126C57.652,84.126,65.705,86.935,69.247,90.921C71.011,92.906,71.065,93.550,69.943,99.191C69.256,102.646,65.762,111.528,61.916,119.596C52.454,139.438,49.474,152.602,54.442,152.602C55.992,152.602,56.809,150.870,59.010,142.916C60.563,137.307,64.306,128.014,67.904,120.841C74.033,108.620,74.137,108.486,75.651,110.814C79.047,116.033,83.845,120.442,89.287,123.343C98.288,128.140,111.590,132.133,124.725,133.980C131.364,134.913,136.748,136.066,136.795,136.537C136.823,136.721,136.837,137.347,136.823,137.478C121.233,135.826,115.112,135.237,114.539,136.729C114.229,137.537,110.274,140.943,108.899,141.844C107.780,140.786,106.650,139.260,102.298,134.848C98.588,131.088,95.145,128.517,94.536,128.893C92.704,130.025,93.323,133.821,95.913,137.331C97.267,139.167,98.376,140.750,98.376,140.850C98.376,140.948,96.492,140.822,94.189,140.570C90.548,140.169,89.664,140.475,87.415,142.908C85.992,144.447,84.412,147.036,83.902,148.662C82.488,153.168,75.182,155.405,61.921,155.395C39.240,155.367,36.672,150.526,41.172,116.211C42.470,106.321,42.885,100.166,42.297,99.578C40.287,97.568,38.447,100.053,36.474,107.445C30.876,128.423,30.071,145.301,34.308,152.839C40.176,163.279,57.660,166.807,77.677,161.589C82.820,160.249,87.117,159.243,87.227,159.352C87.336,159.461,83.015,164.038,77.622,169.521C65.224,182.129,65.257,182.455,79.163,184.511C88.887,185.949,128.575,189.702,146.112,190.842C149.338,191.051,152.145,191.733,152.353,192.357C152.999,194.296,155.956,193.610,159.147,190.782C160.828,189.292,166.635,182.751,172.052,176.249C177.470,169.746,184.664,161.323,188.041,157.530C191.418,153.736,194.842,149.637,195.650,148.422C198.668,143.886,196.610,143.040,178.676,141.443C176.333,141.233,173.717,141.045,171.340,140.793C170.361,140.272,169.042,139.578,168.330,139.106C163.555,135.939,142.908,130.909,118.575,126.986C110.605,125.701,106.801,124.444,98.672,120.411C84.518,113.389,77.766,105.914,77.707,97.201C77.648,88.509,72.170,82.900,60.094,79.166C56.436,78.035,53.101,77.414,49.954,77.353ZZM116.831,138.820C117.012,138.848,117.227,138.884,117.533,138.918C122.978,139.523,135.140,140.963,136.666,141.243C137.084,142.015,137.774,144.076,137.951,145.697C138.164,147.645,138.902,148.764,140.127,148.996C142.461,149.440,143.869,147.359,143.191,144.473C142.404,141.129,143.737,141.760,148.919,147.184C153.862,152.358,157.486,153.608,157.486,150.139C157.486,149.056,156.563,147.245,155.434,146.116C151.843,142.525,154.318,142.813,159.107,146.544C163.708,150.129,168.324,151.287,168.324,148.858C168.324,148.153,167.792,147.044,167.142,146.394C165.304,144.557,167.887,144.881,170.919,146.868C172.940,148.192,176.054,147.282,175.103,144.896C178.082,145.136,189.188,145.713,190.251,146.777C190.570,147.095,183.011,155.964,173.452,166.483C153.879,188.022,156.530,186.489,142.215,184.550C138.964,184.110,124.497,182.616,110.067,181.231C82.923,178.624,77.653,177.912,77.719,176.864C77.747,176.526,80.955,172.827,84.862,168.645L91.966,161.043L97.071,162.415C101.337,163.561,103.085,163.574,107.708,162.499C110.750,161.791,112.724,161.048,113.116,160.925C115.248,160.255,115.872,161.229,117.801,162.537C122.015,165.398,123.171,165.482,125.341,163.083C127.270,160.953,134.585,157.450,135.401,158.267C135.706,158.572,135.259,160.171,134.405,161.820C133.553,163.469,132.855,166.073,132.855,167.605C132.855,170.895,135.310,174.769,137.394,174.769C139.021,174.769,141.723,169.159,141.723,165.780C141.723,163.688,141.779,163.678,143.693,165.410C144.777,166.390,145.663,167.927,145.663,168.826C145.663,169.724,146.907,171.650,148.427,173.107C151.442,175.995,156.476,176.682,158.323,174.456C159.751,172.736,157.245,169.096,153.693,167.732L151.082,166.729L154.038,164.350C155.823,162.914,158.286,161.966,160.254,161.966C164.326,161.966,163.507,160.285,159.020,159.443C156.855,159.037,155.519,158.139,155.186,156.864C154.824,155.482,154.002,155.004,152.386,155.233C150.533,155.496,150.097,156.160,150.097,158.720C150.097,160.460,149.361,162.620,148.461,163.522C146.936,165.050,146.725,164.970,145.347,162.330C141.493,154.949,131.478,149.761,130.553,154.667C130.422,155.367,124.322,159.006,123.282,159.006C123.123,159.006,122.600,157.555,121.910,155.981C121.386,154.787,121.145,153.380,119.326,151.978C117.982,150.943,116.019,149.618,114.168,147.708L110.801,144.235L114.572,140.513C116.049,138.971,116.287,138.767,116.831,138.820ZZM137.351,161.732C137.577,161.878,137.679,162.963,137.712,165.164C137.751,167.738,137.337,169.845,136.795,169.845C135.612,169.845,135.612,165.209,136.795,162.455C137.033,161.899,137.215,161.646,137.351,161.732ZZM74.202,165.281C72.338,164.869,68.377,168.318,55.466,181.059C46.537,189.870,42.915,194.612,42.209,196.278C41.750,197.361,41.679,198.665,43.105,198.417C44.312,198.208,51.261,192.218,53.500,189.782C54.310,188.901,58.962,183.930,64.988,177.828C72.762,169.955,75.639,166.425,74.892,165.678C74.691,165.477,74.469,165.340,74.202,165.281ZZM150.648,169.879C151.493,169.851,153.044,170.495,154.096,171.291C156.545,173.144,154.798,173.166,151.575,171.322C149.996,170.419,149.663,169.902,150.648,169.879ZZM122.907,170.830C119.088,170.830,119.330,176.608,123.227,178.486C126.145,179.892,126.349,179.897,127.654,178.592C129.662,176.583,126.144,170.830,122.907,170.830ZZM123.871,173.786C124.413,173.786,125.130,174.229,125.464,174.771C125.799,175.313,125.632,175.757,125.089,175.757C124.547,175.757,123.829,175.313,123.494,174.771C123.159,174.229,123.329,173.786,123.871,173.786ZZ" class="fills"/></g><rect rx="0" ry="0" x="124" y="152" transform="matrix(1.000000, 0.000000, 0.000000, 1.000000, 0.000000, 0.000000)" width="39.5" height="26" style="fill: rgb(255, 255, 255); fill-opacity: 1;" class="fills"/><rect rx="0" ry="0" x="119" y="165" transform="matrix(1.000000, 0.000000, 0.000000, 1.000000, 0.000000, 0.000000)" width="8.5" height="15" style="fill: rgb(255, 255, 255); fill-opacity: 1;" class="fills"/><rect rx="0" ry="0" x="162" y="160" transform="matrix(1.000000, 0.000000, 0.000000, 1.000000, 0.000000, 0.000000)" width="3.5" height="5" style="fill: rgb(255, 255, 255); fill-opacity: 1;" class="fills"/><path d="M182.840,155.672L111.000,147.000M252.000,184.000" class="fills"/><g class="strokes"><path d="M182.840,155.672L111.000,147.000M252.000,184.000" style="fill: none; stroke-width: 2; stroke: rgb(0, 0, 0); stroke-opacity: 1;" class="stroke-shape"/></g><path d="M169.049,170.672L86.000,162.000M249.000,199.000" class="fills"/><g class="strokes"><path d="M169.049,170.672L86.000,162.000M249.000,199.000" style="fill: none; stroke-width: 2; stroke: rgb(0, 0, 0); stroke-opacity: 1;" class="stroke-shape"/></g><path d="M164.796,142.890L120.000,184.659M223.478,115.216" class="fills"/><g class="strokes"><path d="M164.796,142.890L120.000,184.659M223.478,115.216" style="fill: none; stroke-width: 2; stroke: rgb(0, 0, 0); stroke-opacity: 1;" class="stroke-shape"/></g><path d="M135.796,137.890L91.000,179.659M194.478,110.216" class="fills"/><g class="strokes"><path d="M135.796,137.890L91.000,179.659M194.478,110.216" style="fill: none; stroke-width: 2; stroke: rgb(0, 0, 0); stroke-opacity: 1;" class="stroke-shape"/></g><path d="M136.909,165.346L138.759,163.698L137.834,166.673L141.252,162.893L147.404,157.907L152.350,152.881" class="fills"/><g class="strokes"><path d="M136.909,165.346L138.759,163.698L137.834,166.673L141.252,162.893L147.404,157.907L152.350,152.881" style="fill: none; stroke-width: 2; stroke: rgb(0, 0, 0); stroke-opacity: 1;" class="stroke-shape"/></g><path d="M136.950,166.150L136.266,165.306L136.105,163.818L137.513,163.376L137.110,163.858L143.745,160.642L144.670,159.677L141.775,160.038L141.815,159.717L143.142,158.752L147.646,157.063L144.670,158.149L141.373,160.119L148.088,155.334L144.951,157.425L147.726,155.535L150.139,153.002L150.782,152.881L148.892,153.323L142.378,156.580L137.231,159.677L145.032,157.304L141.172,158.510L139.362,159.596L137.432,161.486L142.740,160.239L139.242,161.124L135.623,163.054L134.979,163.939L135.180,165.748L135.381,161.888L137.513,157.947L138.558,157.023L145.153,154.449L148.369,152.640" class="fills"/><g class="strokes"><path d="M136.950,166.150L136.266,165.306L136.105,163.818L137.513,163.376L137.110,163.858L143.745,160.642L144.670,159.677L141.775,160.038L141.815,159.717L143.142,158.752L147.646,157.063L144.670,158.149L141.373,160.119L148.088,155.334L144.951,157.425L147.726,155.535L150.139,153.002L150.782,152.881L148.892,153.323L142.378,156.580L137.231,159.677L145.032,157.304L141.172,158.510L139.362,159.596L137.432,161.486L142.740,160.239L139.242,161.124L135.623,163.054L134.979,163.939L135.180,165.748L135.381,161.888L137.513,157.947L138.558,157.023L145.153,154.449L148.369,152.640" style="fill: none; stroke-width: 2; stroke: rgb(0, 0, 0); stroke-opacity: 1;" class="stroke-shape"/></g><path d="M150.661,152.961L150.661,152.961Z" class="fills"/><g class="strokes"><g class="inner-stroke-shape"><defs><clipPath id="b"><use href="#a"/></clipPath><path d="M150.661,152.961L150.661,152.961Z" id="a" style="fill: none; stroke-width: 4; stroke: rgb(0, 0, 0); stroke-opacity: 1;"/></defs><use href="#a" clip-path="url('#b')"/></g></g><path d="M150.782,152.921L150.782,152.921Z" class="fills"/><g class="strokes"><g class="inner-stroke-shape"><defs><clipPath id="d"><use href="#c"/></clipPath><path d="M150.782,152.921L150.782,152.921Z" id="c" style="fill: none; stroke-width: 4; stroke: rgb(0, 0, 0); stroke-opacity: 1;"/></defs><use href="#c" clip-path="url('#d')"/></g></g><path d="M150.501,153.162L151.144,152.881" class="fills"/><g class="strokes"><path d="M150.501,153.162L151.144,152.881" style="fill: none; stroke-width: 2; stroke: rgb(0, 0, 0); stroke-opacity: 1;" class="stroke-shape"/></g><path d="M136.417,166.201L137.467,166.058" class="fills"/><g class="strokes"><path d="M136.417,166.201L137.467,166.058" style="fill: none; stroke-width: 2; stroke: rgb(0, 0, 0); stroke-opacity: 1;" class="stroke-shape"/></g><path d="M134.029,165.175L135.963,166.106" class="fills"/><g class="strokes"><path d="M134.029,165.175L135.963,166.106" style="fill: none; stroke-width: 2; stroke: rgb(0, 0, 0); stroke-opacity: 1;" class="stroke-shape"/></g><path d="M133.894,165.653L134.658,160.748L135.341,159.340L138.317,156.888L147.123,152.424L142.378,153.148L138.438,155.118L136.548,156.606L133.210,161.994L132.687,166.056L132.768,160.909L135.904,155.159L143.062,152.384L140.327,152.826L137.674,154.033L134.014,157.370L130.918,163.321L130.958,165.010L131.481,165.694L130.637,161.994L132.768,158.375L137.674,154.033L141.293,151.861L139.242,151.942L137.352,152.666L134.698,155.199L131.481,159.743L130.154,165.694" class="fills"/><g class="strokes"><path d="M133.894,165.653L134.658,160.748L135.341,159.340L138.317,156.888L147.123,152.424L142.378,153.148L138.438,155.118L136.548,156.606L133.210,161.994L132.687,166.056L132.768,160.909L135.904,155.159L143.062,152.384L140.327,152.826L137.674,154.033L134.014,157.370L130.918,163.321L130.958,165.010L131.481,165.694L130.637,161.994L132.768,158.375L137.674,154.033L141.293,151.861L139.242,151.942L137.352,152.666L134.698,155.199L131.481,159.743L130.154,165.694" style="fill: none; stroke-width: 2; stroke: rgb(0, 0, 0); stroke-opacity: 1;" class="stroke-shape"/></g><path d="M143.786,151.861L142.177,152.384" class="fills"/><g class="strokes"><path d="M143.786,151.861L142.177,152.384" style="fill: none; stroke-width: 2; stroke: rgb(0, 0, 0); stroke-opacity: 1;" class="stroke-shape"/></g><path d="M133.653,165.091L133.974,165.895" class="fills"/><g class="strokes"><path d="M133.653,165.091L133.974,165.895" style="fill: none; stroke-width: 2; stroke: rgb(0, 0, 0); stroke-opacity: 1;" class="stroke-shape"/></g><path d="M125.263,149.874L129.847,161.293L129.968,165.435L130.128,161.575L130.973,157.071L132.420,154.779L135.557,153.010L131.938,154.618L131.013,155.905L131.134,157.433L137.447,151.562L132.822,152.688L129.606,156.830L131.697,153.131" class="fills"/><g class="strokes"><path d="M125.263,149.874L129.847,161.293L129.968,165.435L130.128,161.575L130.973,157.071L132.420,154.779L135.557,153.010L131.938,154.618L131.013,155.905L131.134,157.433L137.447,151.562L132.822,152.688L129.606,156.830L131.697,153.131" style="fill: none; stroke-width: 2; stroke: rgb(0, 0, 0); stroke-opacity: 1;" class="stroke-shape"/></g><path d="M129.847,158.479L129.766,156.066L131.093,152.930L133.225,151.442L136.039,151.201L135.235,151.080" class="fills"/><g class="strokes"><path d="M129.847,158.479L129.766,156.066L131.093,152.930L133.225,151.442L136.039,151.201L135.235,151.080" style="fill: none; stroke-width: 2; stroke: rgb(0, 0, 0); stroke-opacity: 1;" class="stroke-shape"/></g><path d="M128.962,155.664L129.324,153.372L131.857,150.718L132.541,150.557L132.380,151.201L129.968,153.493L128.480,156.267" class="fills"/><g class="strokes"><path d="M128.962,155.664L129.324,153.372L131.857,150.718L132.541,150.557L132.380,151.201L129.968,153.493L128.480,156.267" style="fill: none; stroke-width: 2; stroke: rgb(0, 0, 0); stroke-opacity: 1;" class="stroke-shape"/></g><path d="M127.716,154.417L128.600,151.522L130.329,150.879L127.877,151.603L127.957,151.160L127.153,151.281L126.509,150.597L124.700,150.879L124.660,149.914L129.646,150.798L130.651,150.356" class="fills"/><g class="strokes"><path d="M127.716,154.417L128.600,151.522L130.329,150.879L127.877,151.603L127.957,151.160L127.153,151.281L126.509,150.597L124.700,150.879L124.660,149.914L129.646,150.798L130.651,150.356" style="fill: none; stroke-width: 2; stroke: rgb(0, 0, 0); stroke-opacity: 1;" class="stroke-shape"/></g><rect rx="0" ry="0" x="124.888" y="150.303" transform="matrix(0.929096, -0.369838, 0.369838, 0.929096, -49.620361, 57.782263)" width="2" height="16" style="fill: rgb(0, 0, 0); fill-opacity: 1;" class="fills"/><path d="M130.434,150.443L131.001,150.458" class="fills"/><g class="strokes"><path d="M130.434,150.443L131.001,150.458" style="fill: none; stroke-width: 2; stroke: rgb(0, 0, 0); stroke-opacity: 1;" class="stroke-shape"/></g><path d="M124.606,151.805L126.237,155.236L128.179,161.688" class="fills"/><g class="strokes"><path d="M124.606,151.805L126.237,155.236L128.179,161.688" style="fill: none; stroke-width: 2; stroke: rgb(0, 0, 0); stroke-opacity: 1;" class="stroke-shape"/></g><path d="M128.440,161.502L128.950,163.430" class="fills"/><g class="strokes"><path d="M128.440,161.502L128.950,163.430" style="fill: none; stroke-width: 2; stroke: rgb(0, 0, 0); stroke-opacity: 1;" class="stroke-shape"/></g><path d="M123.957,150.644L123.957,150.644Z" class="fills"/><g class="strokes"><g class="inner-stroke-shape"><defs><clipPath id="f"><use href="#e"/></clipPath><path d="M123.957,150.644L123.957,150.644Z" id="e" style="fill: none; stroke-width: 4; stroke: rgb(0, 0, 0); stroke-opacity: 1;"/></defs><use href="#e" clip-path="url('#f')"/></g></g><path d="M122.951,151.046L123.836,150.644" class="fills"/><g class="strokes"><path d="M122.951,151.046L123.836,150.644" style="fill: none; stroke-width: 2; stroke: rgb(0, 0, 0); stroke-opacity: 1;" class="stroke-shape"/></g></svg>