<svg width="210.133" xmlns="http://www.w3.org/2000/svg" height="127.536" fill="none"><g style="fill: rgb(0, 0, 0);"><path d="M112.423,4.989L203.716,5.233C203.716,5.233,204.686,41.984,203.705,55.910C202.723,69.837,195.133,97.150,195.133,97.150L101.906,99.046C101.906,99.046,110.476,66.766,110.657,55.704C110.837,44.642,112.423,4.989,112.423,4.989ZZ" style="fill: rgb(255, 255, 255);" class="fills"/><path d="M205.840,69.601C204.844,75.249,203.293,82.788,202.394,86.354C201.495,89.920,200.412,94.215,199.987,95.897C198.549,101.596,197.703,101.730,154.823,103.025C113.579,104.271,100.746,104.177,98.901,102.568C97.258,101.144,98.068,93.749,100.718,85.982C104.089,76.100,106.056,60.115,105.685,45.611C105.277,29.638,106.237,11.391,107.701,7.312C109.673,1.816,114.267,1.368,168.418,1.398C178.036,1.402,188.787,1.250,192.309,1.058C195.832,0.864,200.255,1.008,202.139,1.374C205.147,1.958,205.546,2.342,205.414,4.538C205.331,5.913,205.757,8.824,206.359,11.007C209.650,22.934,209.417,49.325,205.840,69.601ZZM202.328,16.913C202.132,11.660,201.951,7.321,201.925,7.269C201.901,7.219,199.084,7.449,195.667,7.782C192.251,8.115,182.085,8.254,173.076,8.089C164.067,7.924,150.342,7.748,142.576,7.698C134.809,7.646,125.815,7.333,122.588,6.999C113.680,6.077,114.022,5.501,113.731,21.898C113.593,29.642,113.730,37.717,114.036,39.842C114.341,41.967,114.172,50.556,113.659,58.928C112.696,74.647,110.448,86.907,107.482,92.626C106.652,94.226,106.237,95.721,106.562,95.947C106.886,96.174,110.858,96.204,115.388,96.014C119.919,95.824,131.447,95.387,141.006,95.043C176.254,93.775,191.360,93.144,192.718,92.884C193.766,92.684,194.359,90.812,195.111,85.346C195.661,81.348,197.200,72.628,198.531,65.969C201.285,52.187,202.878,31.613,202.328,16.913ZZ" class="fills"/></g><g style="fill: rgb(0, 0, 0);"><path d="M41.741,20.945C40.963,20.931,40.252,20.986,39.630,21.110C32.990,22.433,18.895,24.123,19.575,46.236C20.446,63.207,32.637,69.844,45.045,68.546C57.453,67.248,63.086,55.445,63.031,40.873C62.982,27.668,49.256,21.080,41.741,20.945ZZM49.266,79.939C46.666,79.947,44.228,80.142,42.242,80.301C34.296,80.938,21.943,81.231,19.494,90.782C17.045,100.333,17.480,107.949,18.732,121.075C18.977,126.806,31.875,127.173,43.140,127.491C54.406,127.810,74.841,126.463,74.787,122.104C74.732,117.745,73.345,103.296,69.345,90.880C66.345,81.568,57.069,79.915,49.266,79.939ZZ" style="fill: rgb(255, 255, 255);" class="fills"/><path d="M44.187,17.000C39.270,17.003,34.292,18.766,29.087,21.794C24.802,24.328,19.510,30.903,18.277,35.227C16.267,42.805,16.930,50.133,19.577,56.899C23.521,64.779,30.639,69.229,38.041,70.974C47.640,73.236,54.651,71.515,61.756,61.370C66.187,55.043,67.265,51.565,67.274,43.554C67.282,37.040,67.158,36.456,64.686,31.280C61.697,25.018,58.404,21.558,53.008,19.005C50.065,17.631,47.138,16.999,44.187,17.000ZZM40.585,23.271C42.780,23.296,45.103,23.552,47.514,23.979C59.061,27.126,65.548,44.173,58.887,55.694C52.029,69.899,31.358,68.998,24.787,53.618C23.219,50.438,22.641,38.810,23.847,34.701C26.550,26.050,32.748,23.182,40.585,23.271ZZM49.122,76.291C40.408,76.327,31.258,76.800,24.120,80.907C14.432,87.533,15.712,97.945,15.712,97.945C15.062,105.993,14.684,114.267,15.348,120.311C16.205,123.239,21.830,122.766,21.948,120.311C21.254,108.347,20.377,100.079,21.370,96.183C23.946,81.994,34.585,82.990,45.969,82.287C54.817,81.782,56.718,82.348,61.323,86.862C65.115,90.579,70.136,99.054,70.971,108.299C71.309,112.047,71.488,115.763,71.528,120.311C71.949,123.491,76.578,123.656,76.943,120.311C76.713,111.733,76.072,104.331,75.431,101.874C72.503,89.616,67.535,77.964,53.903,76.480C52.334,76.348,50.736,76.285,49.122,76.291ZZ" class="fills"/></g><g style="fill: rgb(0, 0, 0);"><path d="M63.656,35.180C60.131,21.279,51.023,12.801,45.069,10.973C39.114,9.145,32.457,8.646,25.126,15.445C17.794,22.245,9.590,38.341,14.632,50.481C19.673,62.620,29.741,69.775,42.083,68.397C54.424,67.018,66.360,53.099,63.656,35.180ZZ" style="fill: rgb(255, 255, 255);" class="fills"/><path d="M71.788,73.931C72.722,73.232,72.936,72.026,72.554,69.600C72.169,67.148,72.451,65.600,73.599,63.879C75.723,60.693,75.597,55.673,73.274,50.962C69.829,43.975,69.848,44.057,71.604,43.780C73.499,43.482,75.105,41.369,74.185,40.383C73.832,40.004,70.723,39.217,70.080,39.318C69.552,35.327,68.831,30.481,65.518,28.390C64.271,27.619,62.648,22.389,62.533,21.663C58.544,8.561,46.168,5.712,33.128,6.572C28.399,6.948,21.966,9.228,18.331,12.600C16.550,14.252,14.231,15.865,13.583,19.869C12.864,24.305,12.213,25.651,9.237,28.845C6.701,31.567,7.042,33.878,6.311,36.965C4.646,43.996,5.037,47.923,7.868,52.583C10.593,57.069,11.046,60.705,10.017,69.836C9.563,73.869,9.704,75.086,10.824,76.790C12.511,79.357,15.491,79.693,17.999,77.599C19.769,76.121,19.915,76.129,22.075,77.804C24.043,79.332,24.581,79.409,26.503,78.444C28.268,77.558,28.658,76.842,28.520,74.740C28.221,70.185,28.400,70.025,32.468,71.218C37.260,72.625,47.773,71.183,51.512,68.607C52.846,67.688,54.009,67.189,54.097,67.497C54.185,67.806,54.493,69.174,54.782,70.536C55.522,74.029,57.719,74.729,60.795,72.451C62.281,71.351,63.323,70.971,63.580,71.436C65.122,74.221,69.585,75.578,71.788,73.931ZZM34.909,64.342C30.402,63.387,23.258,58.594,20.085,54.398C17.513,50.997,17.191,50.072,16.768,44.871C16.151,37.280,18.074,31.536,23.591,24.499C28.278,18.521,34.171,14.129,38.399,13.464C40.785,13.089,41.949,13.583,46.521,16.912C53.351,21.886,59.156,29.500,59.990,34.578L60.590,38.232L57.865,38.709C52.968,39.566,52.900,44.052,57.783,44.173C59.164,44.208,60.349,44.610,60.416,45.067C60.630,46.511,57.074,54.089,54.914,56.792C50.270,62.603,41.796,65.801,34.909,64.342ZZM49.037,56.521C51.606,53.912,50.090,52.550,45.862,53.669C43.332,54.339,41.253,54.318,38.281,53.596C35.068,52.814,33.969,52.826,33.174,53.653C31.719,55.166,32.044,55.890,35.082,57.900C38.692,60.042,46.238,59.259,49.037,56.521ZZM39.062,36.671C39.529,36.086,39.802,34.911,39.668,34.058C39.118,30.562,34.486,30.129,34.103,33.538C33.719,36.956,37.118,39.103,39.062,36.671ZZM53.354,31.673C52.961,29.171,50.636,27.671,49.118,28.720C48.114,29.415,48.020,30.163,48.445,32.025C48.794,33.559,50.227,34.622,51.576,34.586C53.138,34.544,53.643,33.506,53.354,31.673ZZ" class="fills"/></g><path d="M195.977,10.221C195.726,10.205,195.375,10.272,194.813,10.394C191.167,11.262,186.754,13.045,183.266,14.769C181.219,15.580,180.782,15.471,180.010,17.495C178.839,21.211,177.604,25.486,176.501,28.782C176.166,29.761,175.872,31.604,175.897,32.573C175.916,33.291,176.455,34.895,176.831,35.351C177.985,37.585,179.501,39.875,180.846,41.530C181.521,42.413,182.885,43.176,183.760,43.159C187.452,42.699,190.858,40.221,194.201,37.527C195.212,36.709,195.426,36.390,196.403,34.245C198.216,29.927,198.909,25.567,200.135,20.355C200.490,18.952,198.819,14.984,197.340,11.830C196.593,10.693,196.528,10.256,195.977,10.221ZZM193.707,12.775C193.820,12.777,193.867,12.856,193.866,13.010C193.128,15.821,192.167,18.949,191.377,21.334C190.404,24.240,190.674,26.482,191.757,24.497C193.292,21.326,194.841,16.763,195.543,13.555C195.688,12.861,196.125,13.226,196.406,13.584C197.210,15.266,198.782,18.224,198.394,18.755L197.853,21.476C197.099,24.592,196.036,29.196,195.157,31.932C195.040,32.176,194.673,33.118,194.341,34.026C193.868,35.321,193.666,35.700,193.404,35.784C190.334,37.208,186.817,40.269,183.820,40.964C182.979,41.131,181.872,40.550,181.111,39.403C179.307,37.032,177.285,33.390,177.454,32.792L177.939,30.960C178.206,29.952,178.557,28.688,178.719,28.150C179.685,24.519,180.880,21.446,181.718,18.122C181.866,17.325,183.223,17.051,183.960,16.694C187.473,15.216,190.452,13.608,193.707,12.775ZZM183.428,18.131C182.960,19.051,181.881,20.187,181.817,21.126C181.928,22.736,182.782,22.864,183.481,22.469C184.227,21.835,184.209,22.038,184.124,22.463C184.198,23.455,184.757,24.478,185.549,24.165C185.767,24.074,185.853,24.130,185.904,24.395C185.941,24.587,186.111,24.845,186.282,24.967C186.474,25.105,186.624,25.419,186.676,25.791C186.959,27.058,188.007,27.096,188.610,26.592C188.947,26.304,189.427,26.309,189.564,26.602C189.606,26.694,189.734,26.721,189.849,26.663C190.509,25.877,190.208,24.050,189.301,24.312C188.909,24.448,188.852,24.199,189.157,23.687C189.452,23.190,189.372,22.956,188.729,22.422C188.318,22.081,188.266,21.746,188.565,21.351C189.451,19.011,187.339,20.690,186.966,21.050C185.497,22.449,186.210,21.254,186.779,20.480C188.352,18.579,187.646,16.832,186.250,18.229C185.860,18.384,183.835,20.780,184.630,19.046C185.483,17.138,183.890,17.209,183.428,18.131ZZM118.366,28.145C117.626,31.531,121.105,28.017,121.109,28.660C121.876,33.197,125.641,30.012,127.431,29.060C127.684,31.134,129.057,31.703,132.070,29.158C132.321,28.758,132.447,28.837,132.661,29.525C133.046,30.497,134.560,32.170,135.269,31.130C135.469,30.810,135.339,29.623,135.101,29.598C134.278,29.586,133.825,29.137,133.810,28.152C133.710,23.995,129.212,29.552,128.744,28.748C128.814,28.153,128.201,27.173,127.659,27.013C126.129,26.738,124.360,29.012,122.926,29.048C122.457,29.046,122.372,28.685,122.575,27.563C122.546,26.608,119.332,28.296,121.651,26.253C121.541,24.264,118.708,27.075,118.366,28.145ZZM139.120,27.547C138.492,28.124,138.519,28.812,138.344,29.722C138.332,30.846,138.294,31.372,138.788,32.034C139.420,32.880,139.996,32.748,142.289,31.228C144.154,29.992,144.340,29.945,144.365,30.708C144.379,31.149,145.165,31.853,145.683,31.890C146.402,31.941,148.831,30.648,149.078,30.082C149.158,29.897,149.274,29.976,149.567,30.415C150.335,31.410,152.622,31.088,152.993,29.800C153.132,28.951,152.606,28.601,152.080,28.702C150.536,29.019,150.576,29.024,150.544,28.483C150.507,27.871,149.901,26.986,149.517,26.985C148.665,26.927,147.196,29.415,145.973,29.645C145.897,29.644,145.845,29.328,145.857,28.941C145.883,27.957,144.889,26.858,144.442,27.320C143.389,28.447,141.403,29.006,140.430,30.005C139.479,30.803,140.725,28.790,140.967,28.317C141.569,26.097,139.617,26.121,139.120,27.547ZZM157.906,26.686C157.490,27.235,157.575,28.275,157.814,29.088C158.018,29.748,158.739,30.571,159.355,30.850C159.899,31.095,160.966,30.861,161.580,30.361C161.985,30.031,162.076,30.019,162.560,30.233C163.215,30.417,163.962,30.447,164.491,29.792C164.790,29.396,165.232,29.272,165.368,29.545C165.921,30.659,166.161,30.827,166.835,30.572C167.606,30.281,167.751,30.113,167.753,29.511C167.755,28.978,167.482,28.675,166.862,28.524C166.678,28.479,166.378,28.204,166.196,27.914C165.327,26.667,164.966,26.829,164.046,27.559C163.521,27.984,163.232,28.009,163.127,27.639C161.893,25.444,161.168,28.312,159.970,28.806C159.518,28.977,159.068,28.636,159.069,28.123C159.070,27.723,158.175,26.617,157.906,26.686ZZM169.385,26.813C168.804,26.812,168.645,27.088,168.733,27.828C168.495,29.431,170.652,29.592,170.697,28.196C170.697,28.032,170.599,27.673,170.477,27.397C170.297,26.988,170.146,26.883,169.660,26.830C169.559,26.819,169.467,26.814,169.385,26.813ZZM153.792,27.175C153.494,27.174,153.186,27.793,153.190,28.383C153.194,28.893,153.712,30.271,154.023,30.597C154.422,31.016,154.729,30.991,154.978,30.519C155.223,30.056,155.258,29.196,155.036,29.096C154.950,29.058,154.861,28.851,154.837,28.636C154.774,28.073,154.132,27.176,153.792,27.175ZZM188.031,28.932C187.936,28.932,187.821,28.992,187.692,29.132C184.977,30.384,182.209,32.440,179.701,32.877C178.326,33.620,179.455,34.772,180.275,34.679C183.106,34.647,185.904,32.009,187.604,30.667C188.473,30.055,188.441,28.931,188.031,28.932ZZM171.065,32.584C169.754,32.933,169.838,30.795,168.323,32.182C167.663,32.798,167.537,32.839,167.432,32.472C166.892,31.329,166.025,31.693,166.116,32.830C166.227,33.998,167.106,35.406,168.069,34.668C169.044,33.744,169.482,35.812,170.745,35.088C171.081,35.020,173.578,31.656,172.856,33.674C172.218,35.738,173.325,36.682,174.164,35.045C174.864,33.669,174.821,33.400,174.743,33.038C174.295,30.368,172.079,31.675,171.065,32.584ZZM191.202,29.726C191.124,29.726,191.072,29.782,191.007,29.885C190.873,30.099,190.872,30.353,191.005,31.156C191.222,32.469,191.684,33.851,191.938,33.944C192.761,34.245,192.960,33.871,192.749,32.415C192.536,30.944,192.338,30.489,191.705,30.014C191.442,29.817,191.301,29.726,191.202,29.726ZZM123.962,34.566C123.928,34.566,123.900,34.367,123.901,34.123C123.903,33.440,123.403,32.786,122.878,32.784C121.937,32.834,120.911,34.661,120.059,34.734C119.990,34.734,119.935,34.481,119.936,34.172C119.623,31.971,118.495,33.611,118.251,34.647C117.979,35.820,118.008,36.223,118.420,36.925C119.416,38.038,120.623,36.615,121.429,35.786C123.159,33.791,122.491,37.049,124.334,36.423C124.497,36.357,125.034,35.986,125.528,35.600C127.055,33.811,127.827,38.859,128.977,35.103C128.979,34.429,128.764,34.140,128.397,34.327C128.274,34.389,128.135,34.117,127.965,33.485C127.133,30.802,125.425,34.272,123.962,34.566ZZM154.431,34.739C154.515,35.349,155.215,36.355,155.638,36.473C156.175,36.510,156.713,35.988,157.140,35.549L157.479,35.196L157.922,35.843C158.342,36.457,158.397,36.485,158.985,36.380C159.776,36.116,160.727,35.517,161.223,34.648C161.470,34.208,161.472,34.154,161.264,33.613C161.113,33.222,160.994,33.092,160.885,33.201C160.357,33.662,159.731,33.674,159.210,34.187C159.022,34.383,158.792,34.084,158.789,33.642C158.409,32.661,156.775,33.733,156.346,34.023C156.067,34.216,155.978,34.224,155.979,34.057C155.454,31.636,154.202,32.846,154.431,34.739ZZM132.736,34.307C132.515,34.572,132.454,34.588,132.454,34.385C132.456,33.860,132.116,33.505,131.545,33.434C131.140,33.383,130.951,33.435,130.900,33.611C129.537,36.351,133.533,35.970,133.788,35.876C134.037,35.754,134.223,35.794,134.521,36.031C135.036,36.441,134.974,36.452,135.349,35.888C136.111,34.745,136.171,34.558,135.981,33.946C135.392,32.970,133.404,33.539,132.736,34.307ZZM149.559,34.812C149.961,35.565,150.539,36.228,151.227,36.454C151.580,36.553,152.939,36.091,153.065,35.830C153.119,35.718,153.165,35.443,153.167,35.220C153.171,34.682,152.754,34.487,151.842,34.601C151.132,34.691,151.105,34.677,150.695,34.023C150.162,32.691,148.959,33.954,149.559,34.812ZZM139.931,33.720C139.455,33.733,138.860,34.065,138.557,34.675C137.913,35.975,138.556,37.629,139.709,37.634C140.103,37.635,140.349,37.492,140.770,37.015C141.328,36.382,141.538,36.259,141.537,36.565C141.536,36.828,142.090,37.478,142.536,37.738C142.756,37.866,143.110,37.926,143.323,37.870C143.706,37.770,144.994,36.964,145.450,36.539C145.808,36.304,146.068,36.780,146.431,36.862C147.065,36.999,148.132,36.425,148.857,35.556C149.172,34.591,148.771,34.147,148.016,34.366C147.478,34.449,147.032,34.958,146.556,34.630C146.103,34.305,145.232,34.528,144.139,35.248C143.628,35.584,143.139,35.860,143.053,35.862C142.966,35.863,142.755,35.483,142.583,35.018C142.296,34.141,141.411,33.903,140.949,34.443C140.796,34.645,140.600,34.667,140.623,34.479C140.682,33.991,140.404,33.746,139.931,33.720ZC139.994,33.720,139.962,33.719,139.931,33.720ZZM165.827,35.806C165.736,35.812,165.427,35.860,165.315,36.166C165.079,37.747,165.819,40.994,166.465,42.344C167.571,45.923,171.179,45.104,172.584,41.820C172.961,40.906,172.973,40.395,172.620,40.394C172.267,40.393,171.001,41.394,170.403,42.146C169.866,42.822,169.755,42.887,169.199,42.847C168.065,42.766,167.799,42.418,167.320,40.387C166.779,37.060,168.782,39.721,169.573,39.790C170.572,39.874,171.987,39.499,172.019,39.142C172.054,38.743,172.028,38.324,171.945,37.984C171.415,36.877,167.913,38.460,167.732,37.434C167.732,37.167,167.089,36.788,166.815,36.894C166.316,36.914,166.260,35.797,165.827,35.806ZZM174.041,39.570C174.363,39.876,174.757,39.830,175.398,39.411C177.633,36.990,172.439,37.991,174.041,39.570ZZM144.045,38.827C143.259,39.559,142.046,40.381,141.499,40.553C141.145,40.664,141.141,40.655,141.284,40.114C141.455,39.212,140.740,38.365,140.280,38.760C139.448,39.678,139.801,40.112,138.678,40.199C137.603,40.847,138.658,42.578,139.337,41.992C139.983,41.435,140.408,43.114,141.091,42.881C142.024,42.899,142.636,42.061,143.230,41.778C144.187,40.495,144.434,44.928,147.606,41.215C147.923,40.752,148.049,40.768,148.227,41.294C148.592,42.369,149.942,42.179,149.945,41.052C149.555,39.461,148.662,37.708,148.080,38.903C147.677,39.181,145.204,40.823,145.524,39.996C145.725,38.008,144.841,38.091,144.045,38.827ZZM117.611,40.697C117.399,40.521,117.168,41.303,117.254,41.907C117.919,45.251,119.763,40.246,120.698,41.812C122.040,43.910,124.381,41.043,125.007,41.573C125.829,42.315,128.051,41.958,128.566,41.069C129.179,39.182,127.224,39.311,126.626,39.468C125.557,40.008,124.990,38.077,124.220,39.018C123.812,39.518,122.476,40.335,121.957,40.611C121.783,40.611,121.757,40.482,121.824,39.942C121.485,36.180,118.190,40.838,117.611,40.697ZZM152.876,40.117C151.417,37.272,150.882,39.770,151.569,41.296C152.130,42.545,152.354,43.094,153.425,42.146C154.435,40.934,155.814,40.249,156.732,39.139C157.002,38.809,157.037,38.684,156.897,38.568C155.729,37.457,153.291,41.279,152.876,40.117ZZM129.353,41.521C129.067,41.520,128.617,42.026,127.105,44.050C126.462,44.905,125.448,45.589,125.069,46.921C125.069,47.069,124.952,47.273,124.810,47.374C124.458,47.623,124.194,47.247,124.088,46.346C123.929,44.992,123.243,44.887,122.381,46.083C121.521,47.279,121.395,47.312,121.382,46.348C121.369,45.412,121.115,45.057,120.455,45.056C120.126,45.055,119.879,45.253,119.350,45.942C118.975,46.430,118.628,46.830,118.578,46.830C118.528,46.830,118.523,46.593,118.567,46.303C117.321,44.521,115.796,51.424,119.169,48.535L119.850,47.928L120.073,48.434C120.303,48.955,120.760,49.330,121.159,49.324C121.481,49.320,122.422,48.731,122.704,48.358C122.931,48.057,122.956,48.061,123.267,48.453C123.667,48.955,123.667,48.963,123.277,49.724C123.103,50.063,122.860,50.906,122.523,51.392C122.220,51.831,121.930,52.244,122.011,52.608C121.587,52.367,121.312,51.209,120.576,51.887C120.449,53.114,118.322,54.138,118.879,53.376C119.167,52.995,119.067,52.276,118.694,52.045C117.940,51.576,117.033,52.812,117.029,54.314C117.101,57.247,118.812,56.444,119.958,55.384C120.388,54.978,120.966,55.076,120.855,55.535C120.642,56.413,120.326,57.400,119.853,58.667C119.561,59.449,119.279,60.269,119.227,60.489C118.864,61.467,117.402,59.360,116.726,59.624C114.827,60.531,117.608,62.326,118.240,62.240C118.583,62.149,118.626,62.179,118.543,62.445C118.567,63.581,118.276,63.775,118.233,65.112C118.224,65.743,118.810,66.026,118.874,65.281C121.488,59.623,124.262,49.329,129.285,42.773C129.660,42.235,129.708,41.522,129.353,41.521ZZM173.808,46.660C173.340,47.374,172.775,48.438,172.553,49.024C172.331,49.611,171.886,50.791,171.565,51.646C171.244,52.501,170.841,53.375,170.670,53.587C170.499,53.800,170.359,54.048,170.359,54.140C168.721,56.870,172.282,56.248,172.545,55.613C172.624,55.719,173.346,56.055,173.507,56.055C173.791,56.056,173.953,55.777,174.052,55.116C174.078,54.941,174.221,54.484,174.369,54.100C174.699,53.245,174.700,53.183,174.390,52.704C174.235,52.464,173.985,52.320,173.723,52.319C173.182,52.318,173.180,51.998,173.714,50.718C173.939,50.180,174.187,49.520,174.266,49.251C174.399,48.799,174.651,48.573,174.650,48.907C174.650,48.987,174.835,49.235,175.061,49.458C175.460,49.853,175.489,49.857,176.119,49.584C177.223,49.107,177.909,48.009,177.656,47.122C177.579,46.852,176.985,46.901,176.851,47.189C176.682,47.550,176.416,47.301,176.333,46.703C176.684,44.945,174.872,45.262,173.808,46.660ZZM160.201,44.418C158.332,46.510,156.676,49.015,155.321,51.694C154.903,52.547,154.389,53.573,154.179,53.974C153.689,54.535,153.721,56.032,155.116,56.230C155.114,57.041,155.954,57.392,156.462,56.792C156.579,56.655,156.714,56.596,156.763,56.662C156.812,56.727,156.853,56.698,156.853,56.598C156.853,56.497,156.992,56.224,157.161,55.990C157.330,55.757,157.674,55.217,157.924,54.789C158.354,54.055,158.369,53.986,158.185,53.544C157.949,52.978,157.231,52.810,156.875,53.237C156.704,53.441,156.605,53.461,156.495,53.313C156.328,53.090,156.449,52.787,157.300,51.296C158.165,49.782,158.103,49.824,158.315,50.609C158.493,51.265,158.931,51.745,159.355,51.746C159.573,51.747,160.341,51.161,160.343,50.992C160.343,50.919,160.427,50.859,160.528,50.860C160.630,50.860,160.882,50.567,161.089,50.209C161.372,49.717,161.483,49.623,161.540,49.828C161.615,50.098,162.749,51.484,162.994,51.604C163.064,51.639,163.158,52.180,163.203,52.806C163.248,53.432,163.305,53.993,163.330,54.052C163.355,54.111,163.327,54.319,163.267,54.515C163.188,54.772,163.156,54.638,163.151,54.028C163.145,53.230,163.118,53.170,162.656,52.911C162.036,52.565,161.861,52.644,161.087,53.627C160.507,54.363,160.438,54.404,160.241,54.140C159.926,53.719,159.414,53.499,159.169,53.680C158.863,53.906,158.059,56.016,158.057,56.598C158.054,57.076,158.369,57.922,158.650,58.192C158.980,58.509,159.673,58.263,160.174,57.649C160.601,57.127,161.765,56.023,161.889,56.024C161.961,56.024,162.161,56.225,162.333,56.470C162.729,57.034,163.000,57.030,164.040,56.447L164.879,55.976L165.185,56.360C165.353,56.572,165.549,56.745,165.620,56.746C167.683,57.827,166.308,53.600,165.992,52.619C165.740,51.852,165.280,51.572,164.852,51.926C164.709,52.044,164.570,52.112,164.544,52.077C164.517,52.042,164.468,51.398,164.434,50.646C164.400,49.895,164.269,48.856,164.143,48.339C163.840,47.092,163.024,44.816,162.880,44.816C162.340,43.068,161.175,43.037,160.201,44.418ZZM142.067,45.164C141.817,45.654,140.543,47.243,140.400,47.245C140.343,47.245,140.357,47.093,140.432,46.907C140.526,46.676,140.524,46.395,140.426,46.017C140.216,45.268,139.603,45.357,139.228,45.834C139.075,46.037,138.935,46.177,138.918,46.144C137.838,44.601,137.757,45.945,138.059,48.841C138.568,53.377,139.940,50.879,139.829,50.333C139.328,49.724,140.928,49.073,141.360,48.850C141.624,50.059,142.860,50.797,143.911,48.355C143.912,47.920,144.270,48.170,144.575,48.818C146.500,50.242,145.813,47.444,145.786,46.617C145.813,45.210,144.824,45.332,144.468,46.102C144.198,46.708,143.594,47.244,143.430,47.025C143.386,46.965,143.414,46.669,143.494,46.367C143.863,44.876,142.633,44.129,142.067,45.164ZZM179.636,45.332C179.323,45.331,178.987,45.579,178.808,46.021C178.516,46.744,178.262,47.745,178.261,48.182C178.260,48.550,178.833,49.822,179.108,50.063C179.290,50.222,179.434,50.227,179.827,50.089C180.180,49.964,180.402,49.101,180.259,48.408C180.203,48.134,180.239,47.715,180.350,47.368C180.562,46.702,180.492,46.123,180.137,45.613C180.004,45.422,179.824,45.332,179.636,45.332ZZM161.554,45.287C161.701,45.274,161.805,45.488,162.087,46.188C162.313,46.748,162.472,47.297,162.439,47.409C162.407,47.520,162.207,47.657,161.995,47.712C161.761,47.774,161.533,48.004,161.414,48.298C161.306,48.564,161.024,48.888,160.787,49.019C160.152,49.371,160.065,49.332,160.231,48.768C160.487,47.900,160.505,47.477,160.290,47.366C160.178,47.309,160.086,47.204,160.087,47.133C160.087,46.917,161.075,45.572,161.385,45.365C161.452,45.320,161.505,45.291,161.554,45.287ZZM148.708,45.623C148.687,45.623,148.668,45.625,148.708,45.623ZC148.342,46.027,148.012,46.388,147.675,46.739L147.500,46.246C147.135,45.219,146.056,45.723,146.053,46.921C146.052,47.224,146.171,47.676,146.318,47.925C146.464,48.174,146.582,48.467,146.580,48.577C145.984,50.477,145.162,53.212,147.659,49.847C148.399,48.742,149.156,47.635,149.821,46.683C149.752,45.964,149.186,45.641,148.708,45.623ZZM186.005,46.194C185.836,46.190,185.643,46.239,185.438,46.343C185.103,46.512,185.067,46.601,185.136,47.085C185.180,47.388,185.337,47.836,185.485,48.081C185.633,48.326,185.786,48.650,185.824,48.800C185.922,49.188,186.967,49.217,187.609,48.849C188.600,48.281,188.303,47.021,187.178,47.018C186.842,47.017,186.692,46.917,186.597,46.630C186.504,46.349,186.288,46.199,186.005,46.194ZZM189.831,46.423C189.604,46.421,189.406,46.452,189.343,46.503C189.109,46.695,189.307,47.470,189.771,48.178L189.772,48.178C190.186,48.809,190.370,48.892,190.924,48.696C191.330,48.552,191.333,47.647,190.928,46.983C190.703,46.614,190.489,46.478,190.063,46.435C189.985,46.427,189.907,46.423,189.831,46.423ZZM182.244,46.493C182.171,46.495,182.088,46.511,181.985,46.536C181.524,46.650,181.204,47.169,181.203,47.805C181.201,48.245,181.642,49.316,181.825,49.316C181.921,49.317,182.000,49.391,182.000,49.482C182.000,49.573,182.105,49.684,182.233,49.728L182.233,49.728C182.362,49.773,182.547,49.780,182.645,49.743C182.743,49.705,182.882,49.675,182.953,49.675C183.188,49.676,183.874,48.540,183.875,48.148C183.876,47.713,183.566,47.294,183.322,47.402C183.233,47.441,183.001,47.236,182.808,46.947C182.579,46.603,182.461,46.487,182.244,46.493ZZM183.981,52.525C183.804,52.525,182.927,53.048,182.676,53.303C182.575,53.405,182.289,53.581,182.040,53.695C181.610,53.890,181.587,53.879,181.588,53.483C181.589,53.000,181.241,52.696,180.684,52.694C180.173,52.693,179.717,53.434,179.525,54.578C179.424,55.180,179.825,56.677,180.131,56.841C180.488,57.032,180.736,56.953,181.696,56.344C182.235,56.003,182.730,55.769,182.797,55.824C182.863,55.879,182.918,55.816,182.919,55.684C182.919,55.552,183.123,55.321,183.373,55.172L183.826,54.900L184.089,55.628C184.234,56.029,184.513,56.472,184.710,56.612C185.087,56.883,185.352,56.825,186.631,56.195C187.162,55.934,187.236,55.935,187.633,56.217C188.254,56.657,188.336,56.647,188.649,56.087L188.932,55.581L188.654,54.949C188.501,54.601,188.295,54.317,188.195,54.316C188.096,54.316,187.967,54.211,187.908,54.083C187.850,53.954,187.617,53.749,187.390,53.627C187.019,53.426,186.903,53.455,186.219,53.926C185.801,54.213,185.437,54.396,185.409,54.334C185.382,54.271,185.320,53.966,185.271,53.656C185.201,53.212,185.069,53.032,184.653,52.809C184.363,52.653,184.060,52.526,183.981,52.525ZZM176.983,52.684C176.614,52.683,176.489,52.792,176.255,53.315C175.837,54.252,175.881,55.102,176.382,55.789C176.704,56.229,176.881,56.337,177.183,56.279C177.520,56.214,177.571,56.128,177.573,55.622C177.573,55.302,177.665,54.811,177.775,54.531C178.039,53.863,178.031,53.713,177.703,53.155C177.504,52.816,177.304,52.685,176.983,52.684ZZM177.833,58.559C177.317,58.557,177.182,58.622,177.127,58.897C177.090,59.085,176.856,59.375,176.608,59.543C176.360,59.710,176.109,59.957,176.050,60.090C175.850,60.541,175.555,60.363,175.556,59.794C175.558,59.180,175.203,58.907,174.401,58.905C174.043,58.904,173.913,58.989,173.859,59.258C173.805,59.529,173.715,59.587,173.470,59.504C173.295,59.445,173.151,59.473,173.151,59.566C173.151,59.710,172.297,60.156,171.880,60.230C171.806,60.243,171.522,60.389,171.248,60.553C170.974,60.718,170.633,60.852,170.490,60.852C170.347,60.851,170.209,60.928,170.184,61.022C170.160,61.116,169.920,61.229,169.652,61.272C169.252,61.336,169.102,61.264,168.818,60.867C168.541,60.480,168.379,60.398,168.008,60.454C167.361,60.553,167.204,60.853,167.394,61.627C167.496,62.042,167.741,62.420,168.132,62.767C168.639,63.217,168.815,63.277,169.426,63.213C170.282,63.123,171.460,62.682,172.008,62.247C172.229,62.071,172.500,61.874,172.610,61.809C172.721,61.743,172.977,61.538,173.180,61.352C173.495,61.063,173.548,61.054,173.547,61.292C173.546,61.736,174.443,62.944,174.857,63.055C175.292,63.173,176.091,62.852,176.456,62.415C176.594,62.250,176.778,62.114,176.864,62.115C176.950,62.115,177.020,62.035,177.021,61.937C177.021,61.643,177.245,61.735,177.654,62.194C178.280,62.900,178.663,62.937,179.640,62.388L180.508,61.900L180.814,62.285C183.665,64.626,184.327,59.901,182.514,60.834C182.247,61.056,181.888,60.846,182.027,60.549C182.178,60.226,181.712,59.130,181.394,59.061C180.984,58.972,180.386,59.261,179.780,59.842C179.492,60.117,179.221,60.341,179.177,60.341C179.133,60.341,179.091,60.086,179.083,59.775C179.063,58.981,178.631,58.561,177.833,58.559ZZM136.092,58.724C133.891,58.634,126.852,67.531,125.941,75.776C125.474,78.031,126.591,79.532,126.856,77.873C126.856,77.630,126.927,77.291,127.439,75.058C127.809,73.449,128.852,70.346,129.023,70.347C129.068,70.347,129.269,70.595,129.470,70.897C129.786,71.371,129.906,71.436,130.349,71.369C130.632,71.326,131.139,71.077,131.476,70.816C132.036,70.382,132.150,70.371,132.104,70.756C133.372,71.604,134.701,71.505,135.231,70.715C135.371,70.415,135.868,70.529,136.191,70.934C136.477,71.294,136.561,71.310,137.268,71.142C139.171,70.553,138.128,70.958,138.814,72.829C139.094,73.572,139.198,74.584,138.996,74.595C138.903,74.599,138.602,74.733,138.327,74.891L137.827,75.178L137.300,74.267C135.656,71.646,133.284,77.808,132.212,75.055C131.826,73.967,130.715,73.530,130.117,74.278C130.014,74.414,129.973,74.341,129.974,74.023C129.976,73.375,129.532,72.677,129.239,72.866C129.112,72.949,128.904,73.083,128.777,73.165C128.506,73.341,127.612,75.218,127.495,75.859C127.468,76.834,128.395,77.266,128.913,77.185C129.216,77.136,129.731,76.864,130.059,76.582L130.654,76.070C131.591,77.379,132.400,78.267,133.806,77.816C134.403,77.606,134.951,77.156,135.644,76.306C136.301,75.367,136.328,77.265,137.691,77.310C138.222,77.312,138.761,77.011,139.185,76.475L139.549,76.015L140.454,76.585C140.952,76.899,141.527,77.271,141.732,77.413C142.132,77.689,142.129,77.694,142.288,76.745C142.343,76.413,142.315,76.254,142.200,76.250C139.795,74.806,139.343,67.145,139.060,64.680C138.901,63.278,138.619,61.874,138.338,61.083C137.864,59.745,136.846,58.695,136.092,58.724ZZM158.030,58.941C157.671,58.932,157.266,59.138,156.945,59.535C156.542,60.034,156.455,60.763,156.780,60.930C156.941,61.013,156.967,61.202,156.898,61.795C156.802,62.633,156.933,63.104,157.484,63.901C157.780,64.328,157.912,64.394,158.332,64.321C158.855,64.231,159.322,63.838,160.209,62.736C160.819,61.980,160.899,61.950,161.140,62.383C161.374,62.804,161.739,62.863,162.109,62.542C162.409,62.282,162.665,61.542,162.456,61.541C162.301,61.541,162.178,60.771,162.306,60.601C162.446,60.417,161.950,59.049,161.743,59.048C161.222,59.047,160.615,59.509,159.893,60.456C159.441,61.048,159.033,61.532,158.985,61.532C158.937,61.532,158.901,61.084,158.907,60.538C158.915,59.698,158.867,59.490,158.599,59.199C158.444,59.031,158.246,58.947,158.030,58.941ZZM186.525,61.252C186.599,61.252,186.745,61.526,186.849,61.862C187.028,62.437,187.063,62.463,187.476,62.320C187.716,62.236,188.094,62.146,188.314,62.120C188.859,62.054,189.050,61.836,189.050,61.281C189.048,60.554,188.874,60.294,188.545,60.527C188.136,60.816,187.850,60.764,187.851,60.399C187.089,58.684,185.878,59.095,186.525,61.252ZZM154.810,59.445C154.445,59.452,153.794,59.971,153.647,60.395C153.566,60.632,153.439,60.776,153.366,60.715C152.289,58.327,151.076,61.528,150.692,62.933C150.598,63.275,150.415,63.875,150.285,64.266C150.156,64.657,149.966,65.297,149.863,65.689C149.760,66.080,149.479,66.867,149.239,67.439C148.633,69.163,151.153,69.704,151.751,69.354L152.328,69.012L152.755,69.619C152.990,69.953,153.209,70.328,153.242,70.453C153.282,70.605,153.419,70.516,153.656,70.183C153.851,69.909,154.011,69.620,154.011,69.541C154.011,69.462,154.193,69.095,154.414,68.726C154.700,68.250,154.817,67.862,154.819,67.387C154.821,66.640,154.680,66.503,153.913,66.500C153.545,66.499,153.357,66.616,153.137,66.982C152.886,67.398,152.815,67.432,152.631,67.228C152.514,67.097,152.281,67.032,152.115,67.083C151.893,67.151,151.732,67.040,151.510,66.668L151.208,66.162L151.548,65.149C151.734,64.593,151.887,64.023,151.888,63.884C151.888,63.698,151.949,63.675,152.113,63.798C152.259,63.908,152.420,63.899,152.571,63.774C152.807,63.579,152.898,63.617,153.742,64.266C154.022,64.481,154.119,64.468,154.544,64.154C155.201,63.670,155.353,63.421,155.917,61.919C156.382,60.682,156.398,60.167,155.957,60.652C155.790,60.836,155.729,60.830,155.631,60.622C155.565,60.481,155.510,60.275,155.509,60.165C155.507,59.913,155.146,59.503,154.810,59.445ZC154.857,59.446,154.834,59.444,154.810,59.445ZZM189.989,61.315C189.990,62.156,190.259,62.716,190.785,62.972C191.041,63.097,191.635,63.189,192.103,63.176C192.931,63.152,192.960,63.136,193.171,62.549C193.388,61.949,193.387,61.945,192.956,61.429C191.287,61.726,189.992,59.959,189.989,61.315ZZM165.119,60.620C164.882,60.622,164.653,60.686,164.553,60.818C164.320,61.127,164.582,62.218,165.004,62.694C165.471,63.220,165.843,63.267,166.439,62.874C167.209,62.365,167.188,61.199,166.408,61.196C166.113,61.196,165.897,61.087,165.819,60.898C165.742,60.715,165.424,60.617,165.119,60.620ZZM136.316,60.797C136.929,61.049,137.239,61.956,137.349,62.801C137.409,63.340,137.014,63.324,136.683,62.773C136.442,62.372,136.291,62.289,135.848,62.311C135.550,62.326,135.129,62.456,134.911,62.600C133.898,63.087,136.134,60.827,136.316,60.797ZZM132.722,64.506C132.872,64.501,133.001,64.683,133.205,65.100C133.370,65.438,133.620,65.755,133.761,65.804C134.078,65.916,135.030,65.358,135.369,64.862C136.095,64.124,136.255,65.392,137.172,65.357C137.476,65.342,137.781,65.404,137.849,65.495C137.917,65.586,138.045,66.232,138.133,66.930C138.275,68.059,138.267,68.250,138.063,68.662C137.799,69.194,137.037,69.335,137.038,68.852C137.040,68.119,135.610,68.003,134.653,68.658C134.428,68.812,134.142,68.937,134.017,68.937C133.804,68.936,133.804,68.914,134.011,68.612C134.531,67.851,134.056,66.624,133.241,66.621C132.937,66.621,132.652,66.835,132.161,67.432C131.794,67.878,131.227,68.477,130.901,68.763C130.374,69.226,129.552,69.471,129.553,69.166C129.554,68.704,131.577,65.545,132.408,64.707C132.535,64.579,132.632,64.509,132.722,64.506ZZM158.780,67.499C158.020,67.607,157.963,68.082,158.591,69.055L159.024,69.727L159.658,69.474L160.293,69.222L160.746,69.828C161.140,70.355,161.256,70.418,161.647,70.316C162.109,70.195,163.000,69.693,163.383,69.339C163.553,69.182,163.684,69.216,163.984,69.493C164.301,69.785,164.474,69.823,164.970,69.707C165.918,69.487,166.143,69.396,166.332,69.159C166.430,69.037,166.745,68.828,167.032,68.695L167.555,68.452L168.046,69.187C168.472,69.823,168.599,69.912,168.993,69.854C169.243,69.816,169.550,69.777,169.676,69.766C169.853,69.751,169.899,69.599,169.878,69.082C169.858,68.550,169.779,68.369,169.485,68.181C169.213,68.007,169.119,67.816,169.120,67.444C169.121,67.167,169.046,66.863,168.955,66.766C168.714,66.513,167.805,66.354,167.713,66.550C167.671,66.641,167.455,66.715,167.234,66.715C167.013,66.714,166.712,66.799,166.564,66.903C166.295,67.094,166.051,67.182,165.311,67.355C164.959,67.438,164.880,67.374,164.667,66.837C164.444,66.274,164.380,66.229,163.875,66.276C163.464,66.314,163.228,66.464,162.941,66.870C162.730,67.169,162.489,67.414,162.405,67.413C162.321,67.413,162.351,67.313,162.472,67.191C162.641,67.021,162.670,66.825,162.596,66.351C162.021,64.026,159.612,67.321,158.780,67.499ZZM175.796,66.087C175.746,66.086,175.691,66.087,175.630,66.089C174.955,66.112,174.875,66.238,174.872,67.270C174.870,67.891,174.944,68.165,175.201,68.490C175.383,68.721,175.531,68.982,175.531,69.070C175.530,69.339,176.533,69.248,177.014,68.935C177.907,68.354,178.207,67.770,177.995,67.026C177.911,66.731,177.142,66.616,177.141,66.898C177.141,66.983,176.994,67.053,176.816,67.053C176.587,67.052,176.446,66.906,176.340,66.561C176.224,66.185,176.142,66.093,175.796,66.087ZZM183.502,66.661C183.016,67.183,181.948,68.001,181.754,68.000C181.715,68.000,181.683,67.852,181.683,67.672C181.684,67.254,181.323,66.816,180.845,66.656C180.342,66.487,179.947,66.965,179.945,67.746C179.944,68.067,179.883,68.380,179.810,68.440C179.603,68.609,179.650,68.935,179.865,68.825C179.975,68.770,180.144,68.909,180.265,69.156C180.379,69.390,180.608,69.752,180.774,69.959C181.025,70.275,181.173,70.317,181.674,70.219C182.004,70.155,182.438,69.991,182.638,69.854C183.269,69.541,183.637,69.151,184.084,69.608C184.533,70.078,184.905,70.054,185.849,69.493C186.468,69.126,186.671,69.071,186.752,69.247C186.824,69.404,187.062,69.448,187.509,69.388C189.039,69.183,189.464,68.813,189.227,67.897C189.124,67.503,189.002,67.385,188.643,67.338C188.394,67.306,187.975,67.084,187.714,66.846C187.184,66.364,186.560,66.287,186.160,66.654C185.702,67.073,185.293,67.178,185.294,66.876C184.999,65.794,183.962,66.169,183.502,66.661ZZM169.939,71.747C169.891,71.749,169.839,71.752,169.780,71.757C169.323,71.797,169.154,71.948,168.505,72.897C168.094,73.499,167.623,74.046,167.460,74.112C167.297,74.178,167.054,74.384,166.921,74.570C166.645,74.952,166.427,74.860,166.428,74.364C166.430,73.462,165.100,73.150,164.551,73.924C164.353,74.202,164.134,74.345,163.984,74.292C163.846,74.244,163.706,74.317,163.665,74.459C163.625,74.598,163.507,74.712,163.403,74.712C163.300,74.711,163.099,74.808,162.956,74.926C162.734,75.109,162.652,75.073,162.390,74.674C162.127,74.272,162.002,74.217,161.489,74.281C160.866,74.358,160.682,74.557,160.685,75.149C160.688,75.690,160.960,76.235,161.476,76.732C162.017,77.253,162.513,77.233,163.487,76.651C163.954,76.373,164.150,76.125,164.325,75.590C164.582,74.810,164.823,74.675,164.821,75.313C164.821,75.544,165.015,76.008,165.253,76.343C165.589,76.818,165.810,76.965,166.245,77.007C166.795,77.059,167.246,76.852,167.599,76.386C167.698,76.254,167.855,76.148,167.949,76.148C168.042,76.148,168.225,75.993,168.355,75.804C168.587,75.464,168.602,75.467,169.367,76.004C170.006,76.453,170.209,76.520,170.522,76.383C170.989,76.179,171.086,75.508,170.775,74.629C170.634,74.230,170.590,73.813,170.646,73.419C170.704,73.021,170.661,72.630,170.520,72.265C170.354,71.833,170.271,71.737,169.939,71.747ZZM176.180,73.350C176.089,73.351,175.972,73.362,175.817,73.380C175.032,72.017,172.405,76.489,173.343,76.518C173.473,76.519,173.717,76.648,173.885,76.805C174.239,77.137,175.175,77.031,175.593,76.612C175.732,76.473,176.030,76.357,176.256,76.354C176.589,76.350,176.701,76.455,176.855,76.916C176.963,77.237,177.249,77.622,177.515,77.804C178.104,78.207,178.696,78.030,179.818,77.116C180.747,76.464,181.137,77.118,181.701,77.934C182.160,78.614,183.634,78.128,184.178,77.117C184.471,76.573,184.478,76.326,184.220,75.696L184.053,75.288L183.647,75.740C182.826,76.580,182.323,76.322,182.355,75.125C182.377,74.469,182.324,73.983,182.212,73.803C181.978,73.425,180.830,73.409,180.597,73.780C180.360,74.159,178.767,75.644,178.599,75.643C178.522,75.643,178.420,75.435,178.373,75.181C178.249,74.512,177.617,74.048,177.058,74.214C176.642,74.338,176.607,74.313,176.536,73.827C176.480,73.450,176.452,73.348,176.180,73.350ZZM188.342,73.836C188.140,74.119,188.118,75.258,188.302,75.880C188.942,78.290,190.759,75.725,191.584,76.170C191.676,76.269,191.942,76.405,192.176,76.472C193.049,76.723,193.543,75.172,192.798,74.519C192.487,74.246,192.365,74.232,191.896,74.415C191.154,74.705,190.464,74.959,190.181,75.048C189.998,75.105,189.909,74.944,189.788,74.331C189.729,73.172,188.790,73.483,188.342,73.836ZZM185.342,73.778C184.608,73.756,184.163,74.278,184.278,75.028C184.401,75.829,184.701,76.369,185.177,76.647C186.032,77.145,186.451,76.907,186.739,75.760C186.927,75.011,186.829,74.702,186.481,74.949C186.188,75.156,185.989,74.904,185.922,74.240C185.882,73.852,185.807,73.793,185.342,73.778ZZM153.430,73.939C153.045,73.926,152.558,74.124,152.003,74.535L151.278,75.071L151.055,74.675C150.742,74.120,149.924,74.161,148.969,74.779C148.369,75.168,148.202,75.215,148.112,75.020C148.023,74.826,147.932,74.820,147.651,74.990C147.458,75.106,147.189,75.201,147.054,75.201C146.744,75.200,146.590,75.920,146.780,76.480C146.857,76.706,147.129,77.074,147.385,77.298C147.789,77.652,147.915,77.681,148.362,77.522C148.645,77.422,149.042,77.167,149.245,76.956C149.539,76.649,149.657,76.613,149.831,76.778C150.551,77.462,150.764,77.535,151.415,77.322C151.765,77.208,152.082,77.059,152.119,76.992C152.156,76.925,152.326,76.772,152.497,76.653C152.770,76.463,152.844,76.490,153.098,76.875C153.279,77.149,153.691,77.418,154.190,77.590C154.630,77.742,155.003,77.872,155.017,77.879C155.032,77.886,155.198,77.703,155.386,77.472C155.788,76.979,155.817,76.527,155.498,75.773C155.247,75.182,155.065,75.063,155.064,75.489C155.064,75.656,154.937,75.756,154.729,75.755C154.487,75.755,154.395,75.659,154.396,75.407C154.396,75.216,154.328,74.857,154.244,74.609C154.097,74.176,153.814,73.952,153.430,73.939ZZM158.378,74.198C158.326,74.199,158.269,74.202,158.205,74.207C157.618,74.250,157.608,74.261,157.610,74.874C157.613,75.759,158.343,76.749,159.105,76.900C159.228,76.924,159.371,77.000,159.421,77.067C159.596,77.301,159.924,76.411,159.894,75.785C159.863,75.144,159.666,74.823,159.386,74.959C159.300,75.000,159.133,74.838,159.016,74.599C158.857,74.275,158.743,74.189,158.378,74.198ZZM182.565,80.592C181.929,81.544,179.713,83.260,178.751,83.295C178.475,83.294,178.262,83.192,178.218,83.039C178.124,82.709,177.462,82.402,177.107,82.524C176.804,82.629,176.744,83.147,176.952,83.880C177.096,84.392,177.731,85.035,178.412,85.362C179.183,85.853,180.522,85.098,181.228,84.627C181.848,84.166,182.842,83.672,182.842,83.825C183.306,84.524,184.090,85.483,184.722,85.332C185.885,84.855,186.336,84.131,187.379,84.510C188.054,84.761,188.180,84.650,188.186,83.799C188.192,83.006,187.974,82.658,187.291,82.371C186.124,81.879,185.694,81.869,185.286,82.321C185.083,82.546,184.796,82.779,184.648,82.840C184.404,82.941,184.376,82.860,184.341,81.949C184.309,81.118,184.236,80.857,183.913,80.424C183.441,79.768,182.870,79.961,182.565,80.592ZZM128.112,83.608C127.652,84.351,127.625,84.456,127.769,84.925C128.421,86.065,129.121,85.052,129.612,84.401C130.029,85.394,130.535,86.264,131.300,86.811C132.181,87.415,133.640,86.836,135.445,85.167C136.098,84.562,136.106,84.560,136.497,84.870C137.007,85.273,138.066,85.138,138.489,84.616C138.791,84.245,139.135,84.132,139.135,84.405C139.134,84.679,139.782,85.500,140.145,85.685C140.953,85.923,141.359,84.891,142.187,84.947C142.697,84.994,143.010,84.728,143.011,84.248C143.011,84.068,143.105,83.560,143.218,83.120C143.217,80.383,141.706,81.163,140.839,83.012C140.786,83.012,140.743,82.742,140.744,82.411C140.573,80.465,139.078,81.631,138.345,82.162L137.669,82.651L137.670,82.122C136.963,80.014,135.419,82.743,134.660,83.385C132.767,84.948,131.871,85.319,131.425,84.722C131.148,84.351,131.101,83.051,131.336,82.297C131.646,81.305,131.587,80.913,131.108,80.784C129.779,80.264,128.869,82.413,128.112,83.608ZZM147.154,84.437C147.153,84.864,147.931,86.057,148.212,86.057C148.988,85.733,149.280,84.474,149.939,85.125C150.488,85.668,150.827,85.750,151.345,85.464C151.787,85.219,151.841,85.227,152.184,85.589C153.306,87.445,156.535,85.364,157.226,86.004C157.377,86.145,157.579,86.261,157.675,86.261C157.910,86.262,158.380,84.782,158.382,84.037C158.383,83.547,158.309,83.392,157.963,83.161C157.351,82.752,157.007,82.811,156.536,83.407C155.900,84.169,153.387,84.266,153.304,83.608C153.306,82.990,153.152,82.797,152.426,82.508C151.907,82.302,151.861,82.315,151.515,82.773C151.104,83.318,150.857,83.238,151.236,82.683C151.476,82.332,151.473,82.310,151.109,81.802C149.677,80.032,147.196,83.730,147.154,84.437ZZM163.811,82.919C163.354,84.059,163.388,84.531,163.996,85.459C164.475,86.463,165.513,85.767,166.066,85.321C166.422,85.013,166.957,85.170,167.155,85.641C167.216,85.786,167.420,85.956,167.608,86.020C168.639,86.018,168.026,84.068,168.007,83.366C168.009,82.662,166.904,82.469,166.085,83.029C165.720,83.279,165.702,83.275,165.793,82.966C165.905,82.587,165.908,82.564,165.888,82.150C165.177,80.556,164.239,81.867,163.811,82.919ZZM172.612,82.056C171.829,82.579,171.809,82.583,171.183,82.313C170.834,82.162,170.453,82.087,170.338,82.146C169.736,82.452,169.728,85.050,170.330,85.051C170.429,85.052,170.584,85.172,170.675,85.319C170.924,85.721,171.294,85.647,172.147,85.027L172.918,84.466L173.285,84.852C173.700,85.289,174.193,85.345,174.686,85.012C174.870,84.888,175.277,84.676,175.591,84.541C176.276,84.248,176.374,84.108,176.498,83.246C176.573,82.720,176.548,82.558,176.376,82.470C176.257,82.408,176.085,82.438,175.994,82.535C175.710,82.837,174.681,82.735,174.414,82.379C173.705,81.471,173.305,81.593,172.612,82.056ZZ" style="fill: rgb(0, 0, 0); fill-opacity: 1;" class="fills"/></svg>