<svg width="148.608" xmlns="http://www.w3.org/2000/svg" height="190" fill="none"><g style="fill: rgb(0, 0, 0);"><path d="M42.805,4.540C42.805,4.540,55.886,1.742,62.559,3.175C87.865,16.963,82.063,24.678,85.271,47.740C85.271,47.740,74.275,64.426,69.877,67.087C65.479,69.749,62.938,75.823,61.611,78.450C60.284,81.078,56.038,90.837,55.924,93.840C55.810,96.842,56.682,100.050,56.682,100.050L90.844,87.083L144.495,127.723L75.640,162.187L41.706,143.863C41.706,143.863,38.862,146.491,32.644,146.047C26.426,145.604,9.250,141.475,5.648,128.884C2.046,116.292,0.833,93.874,6.141,80.736C11.449,67.599,27.032,56.578,27.032,56.578L20.966,35.558C29.345,21.503,35.761,14.456,42.805,4.540ZZ" style="fill: rgb(255, 255, 255);" class="fills"/><path d="M52.979,0.000C52.288,0.000,51.611,0.025,50.948,0.073C38.056,0.995,27.324,11.724,20.589,30.422C18.462,36.326,17.734,37.442,14.293,40.066C10.984,42.589,10.523,43.261,11.213,44.550C11.807,45.660,12.893,46.067,15.264,46.067L18.503,46.067L16.032,48.881C13.354,51.931,13.234,52.280,14.284,53.939C14.719,54.616,15.786,54.890,17.105,54.638C18.834,54.308,19.903,54.091,18.680,55.524C17.285,57.159,16.677,58.433,16.871,60.677C13.487,63.692,10.347,67.788,8.457,71.906C-3.135,97.160,-2.499,122.113,8.459,137.664C12.026,142.725,20.350,146.059,31.125,146.741C37.221,147.127,38.803,146.977,40.522,145.851C42.553,144.519,42.680,144.557,47.922,148.003C55.826,153.199,69.503,161.015,73.328,162.523C76.610,163.815,76.770,163.800,81.042,161.779C83.442,160.644,85.572,159.715,85.776,159.715C85.980,159.715,89.713,164.104,94.073,169.469C98.433,174.833,103.655,180.745,105.678,182.607L105.678,182.607C106.983,183.796,108.203,186.039,110.548,185.990C113.411,185.931,114.817,181.946,115.780,176.212C117.404,166.541,116.890,164.500,113.071,165.458C111.475,165.859,111.011,166.718,110.220,170.739C109.662,173.576,108.913,175.420,108.390,175.246C107.380,174.910,91.977,157.279,91.977,156.459C91.977,156.164,95.508,154.582,100.925,151.775L110.773,146.672L115.058,150.369C117.415,152.401,121.877,156.680,124.975,159.876C131.213,166.311,135.387,168.354,137.006,167.165C144.537,161.630,148.608,157.697,148.608,155.957C148.608,151.821,145.198,151.766,139.056,157.202C135.445,160.553,133.680,159.151,128.722,154.401C125.123,151.016,120.832,147.355,119.188,146.267C117.544,145.179,116.365,144.019,116.570,143.688C116.774,143.358,120.128,142.119,125.500,139.835C141.944,132.846,146.779,130.267,147.295,128.209C147.549,127.194,147.532,125.999,147.257,125.553C146.981,125.107,139.561,119.801,130.769,113.763C110.331,99.727,110.761,100.002,109.588,100.002C107.584,99.992,108.695,101.575,113.046,104.927C115.495,106.814,121.987,111.855,127.471,116.130C132.955,120.406,138.475,124.514,139.738,125.260C141.001,126.006,142.035,126.836,142.035,127.105C142.035,127.374,136.212,130.040,129.095,133.030C116.105,138.489,94.924,149.230,83.627,156.087L77.571,159.764L74.172,158.040C68.566,155.197,47.416,142.324,40.552,137.575C30.878,130.883,18.007,120.736,17.493,119.397C16.906,117.867,15.434,118.763,15.434,120.650C15.434,122.460,24.661,131.231,33.236,137.571C36.801,140.208,39.837,142.686,39.984,143.078C40.680,144.949,26.927,142.406,20.544,139.484C16.313,137.546,13.545,135.053,11.176,131.042L9.779,128.678L14.487,129.170C17.747,129.511,19.375,129.369,19.782,128.711C20.621,127.354,19.997,126.987,16.096,126.540C10.237,125.869,8.376,124.802,7.489,121.603C6.051,116.420,5.678,106.924,6.613,99.296C7.525,91.856,11.871,76.812,14.747,71.136C15.508,69.636,17.441,67.249,19.541,64.982C20.250,64.640,21.034,64.665,22.342,64.874C24.104,65.156,26.335,64.849,28.207,64.067C29.606,63.482,30.675,62.448,31.488,62.039C32.388,62.860,33.432,63.708,34.298,64.385C33.054,68.644,33.258,71.802,36.292,75.432C38.861,78.485,42.157,80.305,45.119,80.305C48.180,80.305,52.416,77.200,53.538,74.134C53.920,73.092,54.142,72.326,54.485,71.478C54.713,71.512,54.935,71.542,55.168,71.580C55.716,77.241,61.733,75.283,61.829,71.334C62.576,71.259,63.311,71.204,63.651,71.532C63.991,71.861,62.974,74.011,61.393,76.310C56.289,83.730,54.043,89.463,54.120,94.864L54.190,99.682L47.353,102.355C36.050,106.772,24.193,112.128,24.193,112.817C24.193,113.172,25.536,112.977,27.179,112.383C28.821,111.790,37.689,108.612,46.885,105.323C70.343,96.934,83.396,92.008,84.199,91.240C84.576,90.878,84.671,90.235,84.409,89.811C84.124,89.350,81.761,89.837,78.546,91.017C57.941,98.580,58.540,98.415,57.993,96.691C57.719,95.819,57.718,94.208,57.993,93.110C58.392,91.521,65.304,75.779,66.109,74.627C66.220,74.467,68.032,75.649,70.135,77.255C72.238,78.860,77.900,83.049,82.718,86.564C93.006,94.071,98.400,99.104,101.170,103.782L103.176,107.168L100.174,112.999C97.189,118.798,96.939,121.496,99.388,121.496C100.045,121.496,101.117,120.511,101.770,119.307C102.946,117.138,102.960,117.158,103.002,121.496C103.056,126.916,103.738,128.067,106.691,127.730C108.691,127.502,109.106,126.999,109.854,123.896L110.715,120.324L111.845,123.896C112.661,126.477,113.443,127.535,114.664,127.709C117.067,128.052,117.460,126.222,116.103,121.013C115.456,118.527,115.077,116.341,115.262,116.156C115.446,115.972,116.531,117.793,117.671,120.205C119.972,125.068,120.608,125.706,122.457,124.996C124.193,124.330,124.050,122.880,121.812,118.484C119.511,113.964,117.146,111.642,113.134,109.966C111.229,109.170,109.835,107.918,109.322,106.544C107.137,100.692,104.729,96.928,100.518,92.782C94.781,87.133,82.312,78.119,74.158,73.724C70.764,71.896,67.988,70.286,67.988,70.146C71.003,68.303,74.660,66.044,77.557,63.707C79.132,62.437,79.212,62.154,80.721,63.211C83.429,65.108,85.734,64.593,88.837,61.397C91.347,58.812,91.675,58.046,91.288,55.661C90.976,53.741,91.233,52.476,92.134,51.480C93.329,50.161,93.319,49.813,92.012,46.913C90.750,44.115,90.705,43.199,91.596,38.478C93.598,27.869,90.924,19.050,83.511,11.809C76.547,5.008,63.335,-0.022,52.979,0.000ZZM49.714,44.474C50.431,44.474,52.354,45.356,53.986,46.434C58.129,49.168,63.272,50.841,67.606,50.863C71.335,50.882,77.015,51.927,77.831,52.744C78.450,53.362,76.028,56.624,73.114,59.343C67.133,63.914,58.313,67.523,46.432,64.671C42.210,63.658,37.986,61.268,34.640,58.382C35.045,55.396,46.625,44.474,49.714,44.474ZZM67.738,56.812C67.551,56.802,67.070,56.863,66.863,56.884C64.800,57.076,62.165,59.359,63.493,61.370C64.483,62.869,66.814,62.624,68.400,61.387C70.198,58.989,69.795,56.924,67.738,56.812ZZM51.614,57.954C50.778,57.941,49.933,58.089,49.422,58.425C48.089,59.302,47.794,61.272,49.234,62.369C51.615,64.183,53.956,63.366,55.084,62.027C56.564,60.270,54.918,59.217,53.751,58.452C53.277,58.141,52.450,57.967,51.614,57.954ZZM36.352,66.918C36.769,66.935,37.250,67.774,37.530,69.495C37.794,71.121,38.593,73.034,39.304,73.745C41.163,75.603,48.029,75.491,50.155,73.567C51.049,72.757,51.780,72.478,51.780,72.944C51.780,73.411,50.677,74.721,49.330,75.855L49.330,75.855C45.875,78.762,42.472,78.589,38.683,75.314C36.351,73.297,35.648,72.086,35.564,69.939C35.491,68.053,35.834,67.024,36.352,66.918ZC36.296,66.916,36.324,66.916,36.352,66.918ZZM40.541,68.889C41.091,68.906,42.036,69.164,43.619,69.672C45.699,70.340,47.928,71.053,48.572,71.259C49.604,71.587,49.604,71.721,48.572,72.373C45.793,74.131,39.836,72.213,39.836,69.559C39.836,69.098,39.991,68.872,40.541,68.889ZZM26.546,69.205C23.999,69.497,20.163,78.081,16.676,91.637C12.999,105.933,12.441,110.850,14.126,114.108C16.903,119.478,22.354,122.294,40.548,127.759C46.040,129.408,46.173,129.511,47.089,132.834C48.274,137.134,50.641,140.955,53.128,142.585C54.749,143.647,55.882,143.723,60.073,143.048C64.697,142.303,65.167,142.365,66.211,143.856C68.013,146.428,69.937,145.458,70.234,141.828C70.401,139.786,71.054,138.289,72.096,137.559C73.394,136.650,73.602,135.903,73.182,133.663C72.431,129.660,70.304,125.562,68.716,125.058C67.785,124.762,66.378,121.630,64.331,115.296C62.673,110.166,60.953,105.487,60.508,104.896C59.977,104.194,58.774,103.973,57.004,104.260C51.437,105.164,50.965,107.191,54.018,117.085C55.093,120.571,55.811,123.588,55.610,123.787C54.735,124.663,50.258,123.991,43.269,121.936C23.074,115.998,19.416,113.981,19.416,108.786C19.416,105.861,22.521,92.147,26.323,78.282C27.915,72.478,28.228,70.272,27.553,69.597C27.247,69.291,26.910,69.164,26.546,69.205ZZM88.901,104.146C88.605,104.168,88.385,104.571,88.168,105.402C87.797,106.821,87.469,107.006,86.601,106.286C85.755,105.584,85.504,105.641,85.504,106.535C85.504,107.173,85.758,107.949,86.069,108.259C86.379,108.569,87.361,108.719,88.250,108.591C90.094,108.325,90.874,105.845,89.534,104.505C89.285,104.256,89.079,104.133,88.901,104.146ZZM56.910,107.057C58.786,107.067,59.908,110.557,64.009,124.583C64.954,127.814,65.915,130.949,66.146,131.550L66.146,131.551C66.669,132.913,65.531,132.960,63.775,131.648C62.294,130.541,54.173,108.199,55.075,107.715C55.801,107.326,56.385,107.055,56.910,107.057ZZM77.023,111.271C76.376,111.271,75.658,111.645,74.585,112.445C73.365,113.356,72.239,114.779,72.081,115.608C71.823,116.976,71.976,116.950,73.725,115.325C76.489,112.758,77.789,112.985,77.144,115.922C76.582,118.479,77.514,119.069,79.098,117.160C80.364,115.635,79.871,112.714,78.168,111.646C77.772,111.398,77.410,111.269,77.023,111.271ZZM83.972,116.831C83.720,116.830,83.439,116.917,83.132,117.107C82.637,117.413,82.689,118.128,83.275,119.066C84.008,120.240,83.914,120.976,82.818,122.648C81.109,125.256,81.690,127.310,84.755,129.492C87.675,131.571,87.716,132.466,84.906,132.789C82.871,133.024,82.715,133.304,82.679,136.782C82.633,141.266,80.990,143.409,76.587,144.728C74.815,145.259,73.888,145.890,74.408,146.212L74.410,146.212C75.961,147.170,80.882,145.591,83.025,143.448C84.541,141.932,85.071,140.576,85.071,138.213C85.071,135.859,85.441,134.907,86.484,134.576C88.533,133.926,89.757,131.336,88.498,130.313C87.947,129.865,86.451,128.650,85.173,127.613C82.929,125.792,82.895,125.664,84.178,123.833C86.105,121.082,85.739,116.833,83.972,116.831ZZM91.534,123.884C90.845,123.884,90.282,124.035,90.282,124.218C90.282,124.401,90.050,125.153,89.768,125.890C89.381,126.900,89.624,127.159,90.754,126.942C92.616,126.583,93.305,123.884,91.534,123.884ZZ" class="fills"/></g><rect rx="0" ry="0" x="73.5" y="102.5" transform="matrix(1.000000, 0.000000, 0.000000, 1.000000, 0.000000, 0.000000)" width="22.5" height="45.5" style="fill: rgb(255, 255, 255); fill-opacity: 1;" class="fills"/><rect rx="0" ry="0" x="69" y="109.5" transform="matrix(1.000000, 0.000000, 0.000000, 1.000000, 0.000000, 0.000000)" width="10.5" height="9" style="fill: rgb(255, 255, 255); fill-opacity: 1;" class="fills"/><ellipse cx="68.25" cy="123.25" rx="1.75" ry="1.75" transform="matrix(1.000000, 0.000000, 0.000000, 1.000000, 0.000000, 0.000000)" style="fill: rgb(255, 255, 255); fill-opacity: 1;" class="fills"/><rect rx="0" ry="0" x="63.643" y="135.795" transform="matrix(0.776485, 0.630136, -0.630136, 0.776485, 105.042117, -21.546094)" width="38.5" height="3" style="fill: rgb(0, 0, 0); fill-opacity: 1;" class="fills"/><rect rx="0" ry="0" x="41.316" y="112.987" transform="matrix(0.776485, 0.630136, -0.630136, 0.776485, 84.506074, -9.267104)" width="28" height="3" style="fill: rgb(0, 0, 0); fill-opacity: 1;" class="fills"/><rect rx="0" ry="0" x="54.402" y="118.432" transform="matrix(0.776485, 0.630136, -0.630136, 0.776485, 95.276523, -28.740897)" width="67.5" height="3" style="fill: rgb(0, 0, 0); fill-opacity: 1;" class="fills"/><path d="M65.500,124.000L66.500,123.000" class="fills"/><g class="strokes"><path d="M65.500,124.000L66.500,123.000" style="fill: none; stroke-width: 2; stroke: rgb(0, 0, 0); stroke-opacity: 1;" class="stroke-shape"/></g><rect rx="0" ry="0" x="66.098" y="122.834" transform="matrix(0.716068, 0.698030, -0.698030, 0.716068, 105.458574, -12.095734)" width="3" height="1.5" style="fill: rgb(0, 0, 0); fill-opacity: 1;" class="fills"/><path d="M66.799,123.913L68.088,124.924" class="fills"/><g class="strokes"><path d="M66.799,123.913L68.088,124.924" style="fill: none; stroke-width: 2; stroke: rgb(0, 0, 0); stroke-opacity: 1;" class="stroke-shape"/></g><rect rx="0" ry="0" x="52.987" y="130.867" transform="matrix(0.891825, -0.452381, 0.452381, 0.891825, -49.956863, 55.818814)" width="77.5" height="3" style="fill: rgb(0, 0, 0); fill-opacity: 1;" class="fills"/><rect rx="0" ry="0" x="28.487" y="118.367" transform="matrix(0.891825, -0.452381, 0.452381, 0.891825, -46.952394, 43.383298)" width="77.5" height="3" style="fill: rgb(0, 0, 0); fill-opacity: 1;" class="fills"/><path d="M71.839,126.873L71.000,126.000" class="fills"/><g class="strokes"><path d="M71.839,126.873L71.000,126.000" style="fill: none; stroke-width: 2; stroke: rgb(0, 0, 0); stroke-opacity: 1;" class="stroke-shape"/></g><path d="M94.000,127.000L94.638,127.034L94.201,127.000" class="fills"/><g class="strokes"><path d="M94.000,127.000L94.638,127.034L94.201,127.000" style="fill: none; stroke-width: 2; stroke: rgb(0, 0, 0); stroke-opacity: 1;" class="stroke-shape"/></g><rect rx="0" ry="0" x="71.189" y="124.629" transform="matrix(0.765090, 0.643924, -0.643924, 0.765090, 97.751064, -17.192634)" width="2.5" height="1.5" style="fill: rgb(255, 255, 255); fill-opacity: 1;" class="fills"/><rect rx="0" ry="0" x="93.497" y="126.22" transform="matrix(0.649761, -0.760139, 0.760139, 0.649761, -63.695596, 116.198574)" width="1.5" height="2" style="fill: rgb(255, 255, 255); fill-opacity: 1;" class="fills"/><rect rx="0" ry="0" x="68.906" y="144.484" transform="matrix(0.802120, -0.597164, 0.597164, 0.802120, -73.551678, 76.003835)" width="18" height="9" style="fill: rgb(255, 165, 0); fill-opacity: 1;" class="fills"/><path d="M77.000,160.500L95.000,150.012L82.000,139.000L60.000,150.537L77.000,160.500Z" style="fill: rgb(255, 165, 0); fill-opacity: 1;" class="fills"/><g class="strokes"><g class="inner-stroke-shape"><defs><clipPath id="b"><use href="#a"/></clipPath><path d="M77.000,160.500L95.000,150.012L82.000,139.000L60.000,150.537L77.000,160.500Z" id="a" style="fill: none; stroke-width: 4; stroke: rgb(255, 165, 0); stroke-opacity: 1;"/></defs><use href="#a" clip-path="url('#b')"/></g></g><g style="fill: rgb(0, 0, 0);"><path d="M24.522,156.061C21.068,156.023,17.567,156.599,14.871,157.140C10.076,158.101,7.754,160.128,6.402,163.059C3.469,169.416,3.898,177.240,8.881,181.688C13.864,186.136,20.030,186.880,23.830,186.931C27.630,186.981,31.443,184.874,32.688,181.864C33.934,178.854,31.896,176.797,30.751,176.312C29.605,175.827,27.026,173.511,27.340,172.491C27.655,171.471,29.266,171.421,30.486,171.220C31.707,171.019,39.206,172.031,40.729,168.544C42.251,165.058,37.193,160.024,32.097,157.566C29.867,156.490,27.209,156.090,24.522,156.061ZZM25.627,178.074C25.921,178.077,26.229,178.120,26.548,178.210C28.586,178.787,29.417,179.790,29.366,180.969C29.316,182.148,27.479,183.511,25.793,183.243C24.107,182.976,22.395,182.248,22.647,180.392C22.859,179.214,24.039,178.060,25.627,178.074ZZ" style="fill: rgb(252, 254, 255);" class="fills"/><path d="M33.758,189.414C33.078,189.096,34.060,186.429,34.060,186.429L43.195,171.354L45.800,173.235C45.800,173.235,40.263,181.538,40.037,181.864C39.810,182.190,33.758,189.414,33.758,189.414ZZ" style="fill: rgb(212, 94, 75);" class="fills"/><path d="M43.107,171.145L46.089,172.942L48.883,167.056L47.134,165.961Z" style="fill: rgb(199, 201, 204);" class="fills"/><path d="M48.455,166.379C47.234,165.375,46.303,163.536,46.504,162.533C46.706,161.529,48.744,159.982,49.235,159.782C49.726,159.581,50.758,160.074,50.758,160.074L51.827,160.802L53.236,159.874C53.236,159.874,53.652,160.526,53.312,161.688C52.972,162.850,51.085,165.844,50.305,166.178C49.524,166.512,48.656,167.817,48.455,166.379ZZ" style="fill: rgb(203, 150, 88);" class="fills"/><path d="M50.091,159.915L51.374,160.066L51.664,160.944L53.564,159.656C53.564,159.656,53.576,157.399,53.488,156.822C53.400,156.245,52.834,155.476,52.834,155.476C52.834,155.476,51.978,157.457,51.676,157.767C51.374,158.076,49.273,159.706,50.091,159.915ZZ" style="fill: rgb(176, 60, 231);" class="fills"/><path d="M9.045,177.181C7.988,176.471,8.743,173.611,8.743,173.611C8.743,173.611,9.623,171.997,9.988,171.931C10.353,171.864,11.473,172.825,11.813,172.900C12.153,172.976,13.184,173.034,13.285,173.803C13.386,174.573,12.895,176.195,12.392,176.504C11.888,176.813,9.749,178.260,9.045,177.181ZZ" style="fill: rgb(149, 236, 54);" class="fills"/><path d="M11.335,181.111C10.907,180.768,10.995,178.979,11.234,178.561C11.473,178.143,11.851,177.775,12.140,177.934C12.429,178.093,13.763,178.160,13.763,178.160C13.763,178.160,15.110,177.106,15.550,177.641C15.990,178.176,15.840,178.753,15.613,179.564C15.387,180.375,14.745,181.663,14.204,181.579C13.663,181.496,12.706,180.793,12.429,180.894C12.153,180.994,11.335,181.111,11.335,181.111ZZ" style="fill: rgb(54, 186, 236);" class="fills"/><path d="M8.806,171.203C8.277,171.119,7.321,170.718,7.082,170.442C6.843,170.166,6.654,169.614,6.704,169.046C6.755,168.477,6.276,166.571,7.283,165.752C8.290,164.932,8.768,164.104,9.762,164.698C10.756,165.292,11.788,166.370,11.674,167.323C11.561,168.277,9.988,168.502,9.951,169.155C9.913,169.807,9.649,171.153,9.183,171.161C8.717,171.170,8.592,171.170,8.592,171.170Z" style="fill: rgb(248, 235, 181);" class="fills"/><path d="M12.379,164.079C13.285,164.171,14.493,163.168,15.349,163.135C16.204,163.101,17.865,163.118,17.903,162.031C17.941,160.944,16.645,159.698,15.500,159.623C14.355,159.548,13.713,159.823,13.348,160.643C12.983,161.462,12.467,161.588,12.140,162.190C11.813,162.792,11.322,163.954,12.379,164.079ZZ" style="fill: rgb(237, 166, 54);" class="fills"/><path d="M22.030,163.987C20.822,163.870,19.614,162.507,19.791,161.780C19.967,161.053,21.376,158.803,22.370,158.728C23.364,158.653,24.358,159.021,24.622,159.748C24.887,160.476,24.761,162.457,24.534,162.834C24.308,163.210,22.962,164.029,22.030,163.987ZZ" style="fill: rgb(231, 75, 60);" class="fills"/><path d="M26.070,162.466C25.453,161.931,26.183,160.927,26.346,160.559C26.510,160.191,27.139,159.247,28.234,159.656C29.329,160.066,29.693,161.370,29.429,161.914C29.165,162.457,28.410,162.951,27.416,162.892C26.422,162.834,26.070,162.466,26.070,162.466ZZ" style="fill: rgb(240, 132, 213);" class="fills"/><path d="M31.078,164.372C30.725,163.770,30.675,163.001,31.015,162.474C31.354,161.947,31.946,161.278,32.411,161.303C32.877,161.328,33.972,162.006,34.400,162.098C34.827,162.190,35.696,162.875,35.809,163.160C35.922,163.444,36.023,165.325,35.192,165.869C34.362,166.412,33.972,165.668,33.015,165.233C32.059,164.798,31.078,164.372,31.078,164.372ZZ" style="fill: rgb(176, 60, 231);" class="fills"/><path d="M8.842,182.389C0.627,172.801,3.460,160.686,12.866,157.334C17.892,154.940,27.692,154.628,33.370,157.773C40.565,161.757,42.043,166.245,41.295,168.485C39.126,174.973,28.856,169.502,27.982,172.937C27.696,174.063,30.730,175.528,31.467,175.987C35.248,177.780,33.607,181.986,32.534,183.470C27.719,190.129,13.460,187.778,8.842,182.389ZZM29.274,184.824C31.653,183.880,32.897,180.353,32.169,178.354C31.908,177.691,31.613,177.428,30.223,176.620C23.665,173.518,27.073,168.967,32.964,170.610C35.232,170.763,39.951,170.920,40.351,168.096C41.051,163.160,33.719,158.615,30.476,157.702C27.865,156.643,24.906,156.450,23.307,156.461C20.382,156.435,17.514,156.930,14.715,157.884C14.584,157.930,14.280,158.025,14.039,158.094C12.907,158.435,11.895,159.105,10.892,159.679C6.784,162.678,4.270,166.186,5.157,172.309C6.167,175.778,6.781,178.236,8.881,180.573C9.719,181.501,9.932,181.717,10.264,181.977C15.656,186.641,24.645,187.091,29.274,184.824ZZM23.947,183.419C23.448,183.140,23.301,183.020,22.966,182.621C22.059,181.447,21.649,179.628,22.538,178.528C23.679,177.070,25.774,176.902,27.150,177.495C28.252,178.020,28.691,178.340,29.277,179.043C29.795,179.665,29.963,180.497,29.727,181.273C29.472,182.116,28.844,182.925,28.125,183.337C26.706,184.079,25.286,184.144,23.947,183.419ZZM26.673,182.544C27.729,182.295,28.555,181.668,28.870,180.877C28.372,177.848,22.006,178.377,23.147,181.185C23.404,182.536,26.046,182.686,26.673,182.544ZZM13.538,181.863C13.404,181.819,13.231,181.718,13.155,181.638C13.044,181.522,12.875,181.487,12.319,181.465C11.443,181.431,11.144,181.281,10.915,180.761C10.516,179.858,10.896,177.776,11.490,177.606C11.793,177.519,12.581,177.630,12.883,177.802C13.202,177.984,13.390,177.960,13.712,177.696C13.827,177.602,14.096,177.464,14.310,177.390C15.036,177.140,15.677,177.255,16.099,177.710C16.336,177.967,16.342,177.985,16.300,178.431C16.242,179.055,15.998,179.866,15.767,180.206C15.661,180.361,15.553,180.601,15.526,180.739C15.452,181.128,15.114,181.599,14.775,181.786C14.444,181.969,13.960,181.999,13.538,181.863ZZM14.540,181.167C14.889,180.490,15.482,179.170,15.535,178.566C15.702,177.194,13.891,178.179,13.502,178.543C13.257,178.712,12.946,178.645,12.715,178.432C12.405,178.133,11.578,178.087,11.457,178.362C11.324,178.664,11.225,179.496,11.272,179.922C11.348,180.839,11.957,180.811,12.566,180.744C13.524,180.447,13.562,181.315,14.217,181.273C14.345,181.261,14.491,181.214,14.540,181.167ZZM9.314,177.735C8.210,177.405,8.084,176.297,8.309,175.142C8.381,174.817,8.376,174.748,8.274,174.619C7.774,173.103,9.422,171.082,10.718,171.513C10.856,171.535,11.324,171.896,11.367,172.013C11.408,172.123,12.180,172.625,12.356,172.656C12.451,172.673,12.650,172.747,12.798,172.821C14.015,173.153,13.489,175.325,13.028,175.986C12.664,176.471,12.179,176.872,11.345,177.377C10.764,177.728,9.912,177.878,9.314,177.735ZZM10.885,176.915C11.796,176.334,12.846,175.570,12.911,174.378C12.901,173.800,12.751,173.401,12.302,173.308C12.000,173.248,11.388,172.928,11.197,172.731C10.574,172.088,10.393,172.034,9.868,172.334C9.071,172.789,8.745,173.419,8.862,174.274C8.921,174.702,8.914,174.755,8.785,174.858C8.657,174.960,8.648,175.029,8.686,175.634C8.731,176.374,8.915,176.801,9.271,176.992C9.519,177.125,10.723,177.068,10.885,176.915ZZM8.389,171.476C7.920,171.299,7.526,170.655,7.044,170.644C6.630,170.644,6.545,170.503,6.516,169.767C6.493,169.182,6.275,169.044,6.463,168.688C6.824,168.005,7.056,167.986,7.015,168.741C6.996,169.100,7.000,169.550,7.025,169.740C7.069,170.073,7.081,170.087,7.313,170.087C7.834,170.063,8.525,170.918,8.956,170.869C9.239,170.823,9.448,170.220,9.530,169.214C9.551,168.960,9.823,168.732,10.205,168.650C10.946,168.491,11.104,168.252,11.124,167.265C11.137,166.588,11.027,166.282,10.600,165.815C9.587,164.559,8.727,164.679,7.715,165.788C7.382,166.163,7.270,166.351,7.206,166.644C7.111,167.079,6.918,167.930,6.882,168.075C6.816,168.343,6.366,168.096,6.367,167.794C6.369,167.523,6.597,166.293,6.696,166.019C6.772,165.810,7.561,164.893,7.711,164.840C7.756,164.824,7.937,164.707,8.113,164.581C8.485,164.313,9.014,164.115,9.360,164.113C11.284,164.400,12.453,166.504,11.719,168.216C11.485,168.723,10.820,169.278,10.306,169.322C10.193,169.329,10.152,169.441,10.057,170.007C9.889,171.008,9.797,171.241,9.505,171.404C9.048,171.660,8.770,171.678,8.389,171.476ZZM33.334,166.068C32.453,165.101,31.751,165.079,30.743,164.581C30.353,164.326,30.320,163.094,30.491,162.682C30.882,161.817,31.885,160.965,32.474,160.999C32.768,161.016,32.783,161.030,32.732,161.262C32.703,161.393,32.588,161.491,32.330,161.604C31.373,162.023,30.749,163.223,31.152,163.871C31.725,164.348,32.196,164.269,32.755,164.670C33.418,165.050,33.882,165.752,34.532,165.835C35.250,165.761,35.449,164.657,35.514,163.965C35.553,163.517,35.552,163.514,35.251,163.183C34.947,162.850,33.941,162.199,33.560,162.089C32.541,161.821,33.218,161.015,33.519,161.243C33.622,161.326,34.001,161.543,34.362,161.724C35.000,162.019,35.319,162.210,35.775,162.632C36.824,163.601,35.986,164.760,35.819,165.696C35.819,165.853,35.446,166.273,35.202,166.390C34.577,166.550,33.817,166.506,33.334,166.068ZZM11.763,162.400C11.921,162.026,12.075,161.787,12.229,161.674C12.387,161.558,12.487,161.400,12.549,161.165C13.361,159.100,14.670,158.994,16.284,159.374C17.202,159.595,18.262,160.624,18.377,161.407C18.441,161.835,18.296,162.554,18.091,162.834C17.737,163.315,16.894,163.497,15.836,163.320C15.397,163.247,14.931,163.330,14.570,163.740C12.940,165.586,11.011,164.176,11.763,162.400ZZM13.642,163.564C13.906,163.409,14.536,162.977,14.582,162.920C14.710,162.762,15.744,162.493,15.802,162.602C17.180,162.792,18.121,162.159,17.330,160.988C16.720,160.094,15.541,159.693,14.359,159.980C13.830,160.108,13.462,160.580,13.218,161.442C13.107,161.796,13.059,162.239,12.689,162.155C12.455,162.099,12.304,162.333,12.243,162.846C12.211,163.305,12.473,163.498,12.842,163.660C13.030,163.737,13.430,163.690,13.642,163.564ZZM21.441,164.270C20.070,164.142,18.887,160.804,20.695,159.696C20.821,159.624,20.952,159.485,20.985,159.389C21.172,158.843,22.118,158.214,22.810,158.175C23.121,158.190,24.424,158.812,24.612,159.011C24.827,159.256,24.916,159.617,24.927,160.289C24.933,160.661,24.980,161.241,25.030,161.577C25.144,162.334,25.057,162.713,24.650,163.221C24.401,163.531,23.781,163.953,23.573,163.953C22.926,164.112,22.136,164.335,21.441,164.270ZZM22.381,163.554C23.145,163.456,23.898,163.093,24.137,162.707C24.345,162.369,24.398,161.778,24.250,161.460C24.108,161.158,24.061,160.759,24.118,160.346C24.233,159.242,23.551,159.054,22.698,158.880C22.402,158.825,22.063,159.006,21.542,159.499C21.221,159.691,21.261,160.243,21.093,160.257C20.686,160.282,20.522,160.622,20.458,161.576C20.416,162.205,20.425,162.276,20.610,162.708C21.256,163.930,21.443,163.675,22.381,163.554ZZM25.558,162.411C25.415,162.066,25.415,161.828,25.557,161.347C25.665,160.982,26.252,159.891,26.341,159.890C26.365,159.889,26.494,159.771,26.628,159.628C27.027,159.199,27.346,159.067,27.828,159.129C28.056,159.159,28.320,159.217,28.414,159.258C28.710,159.386,29.697,160.294,29.766,160.500C30.056,161.374,29.386,162.792,28.537,163.100C27.760,163.435,25.926,163.199,25.558,162.411ZZM28.929,161.661C29.372,160.703,28.764,160.482,28.246,159.920C28.141,159.801,28.121,159.807,27.985,160.003C27.326,160.567,27.688,159.347,26.962,160.189C26.500,160.730,26.141,161.389,26.141,161.695C26.190,162.810,28.450,162.755,28.929,161.661ZZM32.753,188.832C33.219,186.657,34.759,183.525,35.933,181.754C37.612,178.756,39.824,175.585,41.428,172.832C41.965,171.961,42.421,171.274,42.918,170.432C44.347,168.613,45.162,167.129,46.623,165.479L46.886,165.183L46.743,164.845C46.553,164.395,46.422,163.632,46.364,162.636C46.363,161.678,47.016,160.540,47.578,160.115C48.307,159.580,49.178,159.303,49.911,158.748C50.840,157.958,51.562,157.029,52.075,155.919C52.356,155.300,52.655,155.005,52.838,155.001C53.451,154.987,53.463,155.229,53.678,156.160C53.810,156.760,53.895,157.394,53.956,158.254C54.042,159.686,54.029,160.488,53.658,161.787C52.898,163.978,51.489,166.630,49.482,167.288C49.158,167.431,49.040,167.844,48.901,168.154C47.591,171.098,46.266,173.659,44.509,176.440C41.858,180.271,40.343,182.776,37.400,186.269C35.668,188.312,34.741,189.230,34.460,189.570C33.910,190.144,32.427,190.355,32.753,188.832ZZM34.144,188.463C34.276,188.319,34.751,187.754,35.201,187.208C35.651,186.662,36.269,185.912,36.576,185.543C37.323,184.548,38.011,183.588,38.736,182.581C41.096,178.848,43.289,176.383,44.690,174.015C44.968,173.597,45.186,173.221,45.350,172.981C45.350,172.929,45.260,172.851,45.149,172.807C44.506,172.408,44.065,172.071,43.446,171.725C42.931,172.301,42.542,173.038,42.173,173.676C39.644,177.692,37.447,181.267,35.491,184.904C35.314,185.231,34.888,186.125,34.542,186.892C33.713,188.734,33.643,189.008,34.144,188.463ZZM46.413,171.020C46.988,169.910,47.370,169.096,47.370,168.975C46.986,168.538,46.648,168.261,46.196,167.851C45.564,168.738,44.607,169.865,43.888,170.991C44.583,171.486,45.206,172.049,45.741,172.155C46.055,171.825,46.089,171.644,46.413,171.020ZZM47.876,168.013C48.064,167.618,48.162,167.145,48.082,167.010C47.985,166.846,47.392,166.499,47.207,166.499C47.023,166.561,46.452,167.411,46.518,167.493C46.836,167.624,47.370,168.431,47.659,168.426C47.684,168.396,47.782,168.210,47.876,168.013ZZM49.578,165.916C49.761,165.645,49.942,165.364,49.981,165.292C50.919,163.755,51.501,161.967,52.452,161.025C52.594,160.894,52.661,160.899,52.661,161.042C52.661,161.291,52.798,161.148,52.872,160.823C52.914,160.637,52.965,160.413,52.986,160.325C53.010,160.225,52.872,160.337,52.612,160.627C52.318,160.956,52.130,161.100,51.955,161.133C51.767,161.168,51.684,161.238,51.604,161.429C51.369,161.986,51.104,162.493,50.889,162.795C50.765,162.970,50.478,163.465,50.252,163.895C50.026,164.325,49.771,164.809,49.684,164.970C49.598,165.132,49.434,165.468,49.320,165.717C49.206,165.965,49.081,166.191,49.042,166.219C48.928,166.300,48.960,166.385,49.108,166.397C49.200,166.405,49.354,166.247,49.578,165.916ZZM48.885,165.641C49.284,164.703,49.690,163.919,50.115,163.269C50.342,162.922,50.562,162.566,50.604,162.477C50.845,162.143,50.953,161.632,51.199,161.361C51.370,161.184,51.372,161.096,51.206,160.851L51.078,160.659L50.954,160.875C50.885,160.994,50.740,161.201,50.631,161.334C50.157,161.912,49.910,162.624,49.570,163.267C49.388,163.611,48.892,164.896,48.677,165.583C48.636,165.714,48.573,165.865,48.537,165.918C48.472,166.014,48.519,166.182,48.610,166.178C48.636,166.177,48.760,165.935,48.885,165.641ZZM51.234,164.448C51.633,163.821,52.215,162.727,52.424,162.207C52.724,161.579,52.750,161.261,52.585,161.582C52.199,162.189,51.849,163.034,51.443,163.751C51.172,164.233,50.876,164.770,50.786,164.946L50.624,165.264L50.859,164.966C50.989,164.802,51.157,164.569,51.234,164.448ZZM48.509,164.109C48.932,163.142,49.414,162.114,50.023,161.337C50.440,160.815,50.608,160.538,50.549,160.471C50.526,160.445,50.357,160.495,50.174,160.582C49.778,160.771,49.317,160.743,49.140,160.519C49.026,160.373,49.042,160.424,48.840,160.516C47.552,161.103,47.196,162.361,47.295,163.586C47.380,164.432,47.466,164.589,47.578,164.100C47.721,163.477,47.951,162.805,48.185,162.329C48.303,162.006,48.853,161.047,49.099,161.114C49.128,161.657,48.807,162.095,48.687,162.591C48.619,162.879,48.467,163.469,48.349,163.903C48.134,164.699,48.058,165.249,48.222,164.826C48.265,164.717,48.394,164.394,48.509,164.109ZZM52.168,160.071C52.412,159.728,52.612,159.369,52.991,159.229C53.075,159.200,53.049,156.523,52.964,156.352C52.881,156.185,52.935,156.100,52.459,157.138C52.198,157.735,51.786,158.280,51.437,158.672C51.146,158.997,50.919,159.275,50.933,159.290C50.946,159.306,51.094,159.336,51.262,159.358C51.737,159.421,51.835,159.603,51.730,160.226C51.735,160.798,52.110,160.146,52.168,160.071ZZ" style="fill: rgb(3, 3, 3);" class="fills"/></g><path d="M101.500,104.000L83.000,113.500L99.000,126.500L97.500,119.500L103.000,107.000L101.500,104.000Z" style="fill: rgb(231, 75, 60); fill-opacity: 1;" class="fills"/><g class="strokes"><g class="inner-stroke-shape"><defs><clipPath id="d"><use href="#c"/></clipPath><path d="M101.500,104.000L83.000,113.500L99.000,126.500L97.500,119.500L103.000,107.000L101.500,104.000Z" id="c" style="fill: none; stroke-width: 4; stroke: rgb(231, 75, 60); stroke-opacity: 1;"/></defs><use href="#c" clip-path="url('#d')"/></g></g><path d="M98.000,121.000L103.000,125.000L99.000,126.500L98.000,121.000Z" class="fills"/><g class="strokes"><g class="inner-stroke-shape"><defs><clipPath id="f"><use href="#e"/></clipPath><path d="M98.000,121.000L103.000,125.000L99.000,126.500L98.000,121.000Z" id="e" style="fill: none; stroke-width: 4; stroke: rgb(231, 75, 60); stroke-opacity: 1;"/></defs><use href="#e" clip-path="url('#f')"/></g></g><path d="M97.845,122.051L99.305,125.610" class="fills"/><g class="strokes"><path d="M97.845,122.051L99.305,125.610" style="fill: none; stroke-width: 2; stroke: rgb(231, 75, 60); stroke-opacity: 1;" class="stroke-shape"/></g><path d="M98.823,125.879L98.823,125.879Z" class="fills"/><g class="strokes"><g class="inner-stroke-shape"><defs><clipPath id="h"><use href="#g"/></clipPath><path d="M98.823,125.879L98.823,125.879Z" id="g" style="fill: none; stroke-width: 4; stroke: rgb(0, 0, 0); stroke-opacity: 1;"/></defs><use href="#g" clip-path="url('#h')"/></g></g><path d="M98.866,125.822L98.866,125.822Z" class="fills"/><g class="strokes"><g class="inner-stroke-shape"><defs><clipPath id="j"><use href="#i"/></clipPath><path d="M98.866,125.822L98.866,125.822Z" id="i" style="fill: none; stroke-width: 4; stroke: rgb(0, 0, 0); stroke-opacity: 1;"/></defs><use href="#i" clip-path="url('#j')"/></g></g></svg>