<svg width="317" xmlns="http://www.w3.org/2000/svg" height="150" fill="none"><g style="fill: rgb(0, 0, 0);"><path d="M3.257,56.853L2.870,135.693C4.061,140.738,15.891,145.516,20.542,148.295L90.783,144.531L90.616,58.527C90.616,58.527,86.360,53.259,82.301,53.166C54.574,55.260,3.382,52.213,3.257,56.853ZZ" color="#000" overflow="visible" style="fill: rgb(255, 255, 255);" class="fills"/><path d="M3.896,142.256C1.673,140.026,1.568,139.702,0.810,132.645C1.482,108.744,1.134,95.015,0.900,78.045C0.704,68.548,0.369,59.531,0.153,58.008C-0.607,54.434,1.606,53.096,3.581,52.826C8.347,52.174,2.925,52.374,39.440,51.688C49.802,51.493,63.543,51.005,69.975,50.604C84.941,49.670,83.969,49.591,87.509,52.033C91.514,54.797,92.619,57.577,93.721,67.677C94.553,75.296,94.645,83.490,94.446,132.184C94.421,138.097,94.999,144.761,95.000,145.441C95.000,147.200,94.134,147.860,90.927,148.539C74.848,150.130,56.875,149.889,43.663,149.987C30.263,150.087,18.931,149.547,16.589,149.750C14.385,150.010,6.874,145.220,3.896,142.256ZZM52.109,144.192C66.681,144.044,80.855,144.776,84.988,144.148C88.382,143.633,85.247,141.812,83.507,141.735C79.228,141.546,69.927,141.724,50.809,141.589C31.692,141.454,14.954,141.184,13.614,140.991C10.597,140.555,10.719,140.933,13.390,143.136C15.021,144.482,17.690,144.355,20.881,144.678C31.833,144.479,43.108,144.289,52.109,144.192ZZM90.135,126.482C90.698,113.017,90.086,73.709,89.224,68.003C87.764,58.342,85.764,55.230,86.187,63.279C86.833,75.573,87.287,92.823,87.528,114.265C87.673,127.166,88.186,132.892,87.817,137.885C87.811,137.975,89.272,139.548,89.769,139.548C90.490,139.548,89.750,135.699,90.135,126.482ZZM81.527,136.170C83.241,134.450,82.126,62.515,80.290,56.404C79.978,55.366,79.363,55.270,74.956,55.575C68.542,56.018,51.377,56.472,24.618,56.906C5.682,57.213,7.452,57.322,6.074,58.334C4.931,59.175,6.074,58.334,5.174,63.699C6.194,80.533,5.677,94.115,6.271,113.037C5.737,124.016,6.534,134.914,7.241,135.646C7.523,135.938,9.913,136.342,12.552,136.545C15.191,136.746,17.401,136.950,17.464,136.997C17.526,137.044,31.788,137.056,49.156,137.022C73.083,136.978,80.927,136.772,81.527,136.170ZZ" class="fills"/></g><rect rx="0" ry="0" x="41.803" y="75.599" transform="matrix(0.022391, -0.999749, 0.999634, 0.027035, -69.506977, 154.582230)" width="5.494" height="75.005" style="fill: rgb(0, 0, 0); fill-opacity: 1;" class="fills"/><rect rx="0" ry="0" x="41.803" y="45.928" transform="matrix(0.022391, -0.999749, 0.999634, 0.027035, -39.847493, 125.714050)" width="5.494" height="75.005" style="fill: rgb(0, 0, 0); fill-opacity: 1;" class="fills"/><rect rx="0" ry="0" x="55" y="56.593" transform="matrix(1.000000, 0.000000, 0.000000, 1.000000, 0.000000, 0.000000)" width="5" height="82.418" style="fill: rgb(0, 0, 0); fill-opacity: 1;" class="fills"/><rect rx="0" ry="0" x="24" y="55.495" transform="matrix(1.000000, 0.000000, 0.000000, 1.000000, 0.000000, 0.000000)" width="5" height="82.418" style="fill: rgb(0, 0, 0); fill-opacity: 1;" class="fills"/><g style="fill: rgb(0, 0, 0);"><path d="M194.354,8.498L193.837,106.260C195.428,112.515,211.244,118.440,217.461,121.885L311.363,117.219L311.139,10.574C311.139,10.574,305.449,4.041,300.023,3.925C262.957,6.523,194.522,2.745,194.354,8.498ZZ" color="#000" overflow="visible" style="fill: rgb(255, 255, 255);" class="fills"/><path d="M195.208,114.397C192.236,111.632,192.097,111.231,191.083,102.480C191.981,72.843,191.515,55.818,191.203,34.775C190.942,22.999,190.493,11.819,190.205,9.931C189.188,5.498,192.147,3.839,194.787,3.504C201.159,2.696,193.910,2.944,242.725,2.093C256.578,1.851,274.947,1.247,283.546,0.749C303.553,-0.409,302.254,-0.507,306.985,2.521C312.340,5.949,313.816,9.396,315.290,21.919C316.403,31.367,316.526,41.528,316.260,101.908C316.226,109.240,316.999,117.503,317.000,118.347C317.000,120.528,315.843,121.346,311.555,122.188C290.061,124.161,266.033,123.862,248.370,123.984C230.457,124.108,215.308,123.438,212.177,123.690C209.230,124.012,199.190,118.073,195.208,114.397ZZM259.661,116.798C279.141,116.614,298.091,117.522,303.615,116.744C308.153,116.105,303.962,113.847,301.635,113.752C295.915,113.517,283.481,113.738,257.924,113.571C232.367,113.403,209.992,113.068,208.200,112.829C204.167,112.288,204.330,112.756,207.901,115.489C210.081,117.158,213.649,117.001,217.914,117.401C232.556,117.154,247.629,116.918,259.661,116.798ZZM310.497,94.838C311.250,78.141,310.431,29.399,309.278,22.323C307.326,10.344,304.652,6.486,305.218,16.466C306.082,31.711,306.689,53.100,307.011,79.689C307.205,95.686,307.891,102.787,307.397,108.978C307.390,109.089,309.342,111.039,310.007,111.039C310.971,111.039,309.981,106.267,310.497,94.838ZZM298.989,106.851C301.281,104.717,299.789,15.519,297.335,7.941C296.918,6.654,296.096,6.535,290.205,6.913C281.629,7.462,258.683,8.025,222.911,8.564C197.596,8.945,199.962,9.079,198.120,10.335C196.591,11.378,198.120,10.335,196.917,16.987C198.280,37.861,197.590,54.703,198.383,78.165C197.670,91.780,198.735,105.294,199.680,106.202C200.057,106.564,203.252,107.065,206.780,107.315C210.308,107.566,213.263,107.818,213.346,107.876C213.430,107.934,232.496,107.949,255.714,107.907C287.700,107.853,298.186,107.597,298.989,106.851ZZ" class="fills"/></g><rect rx="0" ry="0" x="275.435" y="7.54" transform="matrix(1.000000, 0.000000, 0.000000, 1.000000, 0.000000, 0.000000)" width="5" height="102.198" style="fill: rgb(0, 0, 0); fill-opacity: 1;" class="fills"/><rect rx="0" ry="0" x="247.035" y="29.019" transform="matrix(0.024138, -0.999709, 0.999685, 0.025078, 164.384706, 326.628454)" width="5" height="100.264" style="fill: rgb(0, 0, 0); fill-opacity: 1;" class="fills"/><rect rx="0" ry="0" x="247.035" y="-7.772" transform="matrix(0.024138, -0.999709, 0.999685, 0.025078, 201.164344, 290.759903)" width="5" height="100.264" style="fill: rgb(0, 0, 0); fill-opacity: 1;" class="fills"/><rect rx="0" ry="0" x="247.526" y="8.176" transform="matrix(1.000000, 0.000000, 0.000000, 1.000000, 0.000000, 0.000000)" width="5" height="102.198" style="fill: rgb(0, 0, 0); fill-opacity: 1;" class="fills"/><rect rx="0" ry="0" x="218.084" y="6.813" transform="matrix(1.000000, 0.000000, 0.000000, 1.000000, 0.000000, 0.000000)" width="5" height="102.198" style="fill: rgb(0, 0, 0); fill-opacity: 1;" class="fills"/><g style="fill: rgb(0, 0, 0);"><path d="M100.895,103.016L113.605,108.952C113.605,108.952,117.327,93.950,129.190,92.146C141.054,90.342,155.296,95.543,155.296,95.543L153.129,104.428L175.883,105.364C175.883,105.364,169.476,81.572,168.556,80.446C167.636,79.319,165.976,78.441,164.876,79.806C163.776,81.171,161.725,83.347,161.725,83.347C161.725,83.347,146.277,73.555,135.048,75.149C123.819,76.743,113.023,79.539,107.705,87.899C102.386,96.259,100.895,103.016,100.895,103.016ZZ" style="fill: rgb(255, 255, 255);" class="fills"/><path d="M135.914,73.006C126.987,72.852,119.082,75.785,111.576,81.917C109.753,83.406,107.426,85.934,106.404,87.534C104.066,91.198,100.350,99.352,99.660,101.479C97.317,105.879,101.592,104.758,106.549,107.938C109.597,110.889,114.330,112.222,115.292,109.581C119.675,97.809,126.167,93.793,134.041,92.618C141.222,91.546,152.782,94.534,152.948,97.047C152.948,97.047,151.721,100.477,149.873,103.275C149.233,104.243,149.576,107.615,151.794,106.896C160.352,106.846,177.123,108.974,177.759,106.584C178.509,103.771,177.605,101.841,173.664,89.238C171.719,83.016,170.799,80.972,169.246,79.413C166.872,76.721,165.231,77.730,163.375,79.876C161.575,81.985,161.201,82.184,160.540,81.385C159.065,79.602,152.950,76.344,148.777,75.117C144.377,74.026,139.861,73.097,135.914,73.006ZZM157.488,82.911C162.271,85.761,163.418,85.709,165.104,82.568C165.727,81.409,166.510,80.553,166.844,80.665C167.179,80.776,168.082,83.159,168.850,85.958C169.619,88.758,171.076,93.853,172.087,97.280C173.099,100.707,173.817,103.621,173.683,103.755C173.550,103.889,171.011,103.742,168.041,103.429C165.072,103.116,161.059,102.855,159.124,102.849L155.607,102.838L157.178,100.019C158.514,97.860,159.158,96.891,157.498,95.119C154.357,91.766,144.511,88.293,135.177,88.930C130.869,89.224,125.337,90.621,121.798,93.063C118.849,95.098,114.248,101.416,113.695,104.190C113.509,105.123,113.189,105.990,112.983,106.117C112.777,106.245,110.953,105.465,108.929,104.385C106.905,103.305,104.645,102.262,103.907,102.068C102.596,101.725,102.640,101.568,105.749,95.476C109.495,88.136,113.256,84.119,119.397,80.900C131.837,73.283,146.325,76.402,157.488,82.911ZZ" class="fills"/></g></svg>