<svg width="95" xmlns="http://www.w3.org/2000/svg" height="91" fill="none"><g style="fill: rgb(0, 0, 0);"><path d="M3.257,6.236L2.870,77.981C4.061,82.572,15.891,86.919,20.542,89.448L90.783,86.024L90.616,7.760C90.616,7.760,86.360,2.966,82.301,2.881C54.574,4.787,3.382,2.014,3.257,6.236ZZ" color="#000" overflow="visible" style="fill: rgb(255, 255, 255);" class="fills"/><path d="M3.896,83.953C1.673,81.924,1.568,81.629,0.810,75.207C1.482,53.457,1.134,40.963,0.900,25.521C0.704,16.879,0.369,8.674,0.153,7.288C-0.607,4.035,1.606,2.817,3.581,2.572C8.347,1.978,2.925,2.160,39.440,1.536C49.802,1.359,63.543,0.915,69.975,0.550C84.941,-0.300,83.969,-0.372,87.509,1.850C91.514,4.366,92.619,6.895,93.721,16.086C94.553,23.020,94.645,30.476,94.446,74.787C94.421,80.168,94.999,86.232,95.000,86.852C95.000,88.452,94.134,89.053,90.927,89.670C74.848,91.118,56.875,90.899,43.663,90.988C30.263,91.079,18.931,90.588,16.589,90.773C14.385,91.009,6.874,86.650,3.896,83.953ZZM52.109,85.715C66.681,85.580,80.855,86.246,84.988,85.675C88.382,85.206,85.247,83.549,83.507,83.479C79.228,83.307,69.927,83.469,50.809,83.346C31.692,83.223,14.954,82.978,13.614,82.802C10.597,82.405,10.719,82.749,13.390,84.754C15.021,85.979,17.690,85.863,20.881,86.157C31.833,85.976,43.108,85.803,52.109,85.715ZZM90.135,69.599C90.698,57.345,90.086,21.575,89.224,16.382C87.764,7.591,85.764,4.760,86.187,12.084C86.833,23.272,87.287,38.969,87.528,58.481C87.673,70.221,88.186,75.432,87.817,79.975C87.811,80.058,89.272,81.488,89.769,81.488C90.490,81.488,89.750,77.986,90.135,69.599ZZM81.527,78.415C83.241,76.849,82.126,11.389,80.290,5.828C79.978,4.883,79.363,4.796,74.956,5.073C68.542,5.477,51.377,5.890,24.618,6.285C5.682,6.564,7.452,6.663,6.074,7.584C4.931,8.350,6.074,7.584,5.174,12.466C6.194,27.785,5.677,40.145,6.271,57.363C5.737,67.355,6.534,77.272,7.241,77.938C7.523,78.204,9.913,78.572,12.552,78.756C15.191,78.939,17.401,79.125,17.464,79.167C17.526,79.210,31.788,79.221,49.156,79.190C73.083,79.150,80.927,78.962,81.527,78.415ZZ" class="fills"/></g><path d="M84.111,58.036L4.111,58.036" class="fills"/><g class="strokes"><path d="M84.111,58.036L4.111,58.036" style="fill: none; stroke-width: 5; stroke: rgb(0, 0, 0); stroke-opacity: 1; stroke-dasharray: 15, 15;" class="stroke-shape"/></g><path d="M58.000,7.000L58.000,78.000" class="fills"/><g class="strokes"><path d="M58.000,7.000L58.000,78.000" style="fill: none; stroke-width: 5; stroke: rgb(0, 0, 0); stroke-opacity: 1; stroke-dasharray: 15, 15;" class="stroke-shape"/></g><path d="M83.000,29.000L3.000,29.000" class="fills"/><g class="strokes"><path d="M83.000,29.000L3.000,29.000" style="fill: none; stroke-width: 5; stroke: rgb(0, 0, 0); stroke-opacity: 1; stroke-dasharray: 15, 15;" class="stroke-shape"/></g><path d="M28.000,7.000L28.000,78.000" class="fills"/><g class="strokes"><path d="M28.000,7.000L28.000,78.000" style="fill: none; stroke-width: 5; stroke: rgb(0, 0, 0); stroke-opacity: 1; stroke-dasharray: 15, 15;" class="stroke-shape"/></g></svg>