<svg width="59.334" xmlns="http://www.w3.org/2000/svg" height="85.264" fill="none"><g style="fill: rgb(0, 0, 0);"><path d="M4.080,80.451C0.860,78.912,1.145,79.078,1.594,75.858C2.042,72.639,4.487,63.075,5.832,61.087C7.177,59.099,41.087,9.221,43.492,6.144C45.896,3.066,51.317,0.699,54.578,2.759C57.838,4.818,58.042,11.517,55.882,15.494C53.722,19.471,22.380,67.431,20.709,69.372C19.038,71.313,4.080,80.451,4.080,80.451ZZ" style="fill: rgb(255, 237, 232);" class="fills"/><path d="M7.596,85.067C6.977,84.884,5.219,84.072,3.688,83.262C0.292,81.466,-0.727,78.877,0.500,75.164C0.941,73.831,1.874,70.550,2.574,67.873C3.997,62.428,5.714,59.146,12.842,48.249C34.462,15.200,43.876,1.506,45.622,0.572C48.846,-1.154,55.297,1.222,57.860,5.078C60.076,8.413,59.775,11.179,56.615,16.536C52.519,23.480,23.372,67.192,21.151,69.721C20.085,70.935,17.587,73.108,15.599,74.550C11.018,77.874,8.361,80.324,8.716,80.898C9.327,81.887,16.422,80.237,21.556,77.913C25.943,75.927,27.784,75.444,30.997,75.440C34.618,75.435,35.313,75.673,38.493,78.006C41.604,80.288,42.410,80.575,45.661,80.556C48.438,80.540,50.358,80.027,53.593,78.434C58.495,76.021,59.334,75.883,59.334,77.493C59.334,80.501,54.817,83.702,49.037,84.789C44.284,85.682,40.954,84.773,37.344,81.595C34.452,79.050,33.992,78.862,31.589,79.246C30.153,79.476,26.492,80.872,23.454,82.349C18.841,84.593,17.172,85.065,13.325,85.218C10.792,85.318,8.214,85.251,7.596,85.067ZZM10.581,74.210C15.690,69.867,16.033,69.429,14.721,68.919C10.202,67.163,9.179,66.474,8.255,64.565L7.238,62.466L6.562,64.664C6.190,65.873,5.686,68.332,5.442,70.128C5.198,71.924,4.774,73.834,4.500,74.373C4.226,74.912,3.809,76.161,3.572,77.149C2.877,80.060,4.500,79.379,10.581,74.210ZZM20.222,65.769C20.628,65.116,20.032,64.794,17.801,64.462C14.066,63.904,12.086,62.614,11.022,60.045C10.331,58.378,10.018,58.163,9.233,58.815C8.164,59.702,8.514,62.822,9.866,64.451C11.998,67.020,18.898,67.898,20.222,65.769ZZM23.283,60.527C24.595,59.216,24.176,58.699,21.803,58.699C18.842,58.699,15.259,56.953,14.215,55.002C13.680,54.004,13.157,53.673,12.753,54.078C11.860,54.970,13.425,58.452,15.427,60.027C17.275,61.481,22.027,61.783,23.283,60.527ZZM30.583,49.882C35.112,43.354,42.798,31.267,43.374,29.767C43.684,28.958,43.541,28.743,42.866,29.002C41.380,29.572,38.314,28.125,35.768,25.652L33.428,23.378L24.582,36.762C16.028,49.703,15.770,50.194,16.760,51.646C18.542,54.259,21.079,55.401,24.696,55.220C26.743,55.117,27.303,54.610,30.583,49.882ZZM47.131,24.490C47.380,23.843,46.711,23.489,44.752,23.232C42.617,22.951,41.507,22.290,39.621,20.177C37.293,17.570,37.189,17.527,36.477,18.859C35.835,20.058,36.073,20.570,38.317,22.813C40.556,25.053,41.280,25.391,43.840,25.391C45.741,25.391,46.908,25.071,47.131,24.490ZZM52.135,17.182L53.753,15.594L51.613,15.594C48.830,15.594,46.125,14.160,44.152,11.639L42.569,9.617L41.440,11.341C40.362,12.985,40.368,13.178,41.554,15.473C42.238,16.797,43.506,18.253,44.372,18.710C46.520,19.842,50.154,19.127,52.135,17.182ZZM54.632,11.545C56.079,10.098,55.534,7.320,53.460,5.574C50.912,3.430,49.442,3.006,47.338,3.806C44.390,4.927,45.315,8.753,49.090,11.055C51.466,12.504,53.494,12.683,54.632,11.545ZZ" class="fills"/></g></svg>